<svg height="24" viewBox="0 0 24 24" width="24" xmlns="http://www.w3.org/2000/svg"><path d="m14 2v.00380592l4.9961941 4.99619408h.0038059v6.548l2-.9935685v-3.0544315l-.0080557-.08987563c-.0370439-.20409306-.1979756-.36502474-.4020687-.4020687l-.0898756-.00805567h-.5v-1h1c.5522847 0 1 .44771525 1 1v3.0571612l.0021163-.0010524.0003686 1.0822395-.0024849.0012357v7.860416c0 .5522847-.4477153 1-1 1h-18c-.55228475 0-1-.4477153-1-1v-12c0-.55228475.44771525-1 1-1h1v1h-.5l-.08987563.00805567c-.20409306.03704396-.36502474.19797564-.4020687.4020687l-.00805567.08987563v3.0305489l2 .9934511v-10.524c0-.55228475.44771525-1 1-1zm-11 11.6130482v6.8869518l.00805567.0898756c.03704396.2040931.19797564.3650248.4020687.4020687l.08987563.0080557h17l.0898756-.0080557c.2040931-.0370439.3650248-.1979756.4020687-.4020687l.0080557-.0898756v-6.8631487l-8.9721039 4.4615341zm10-10.6130482h-7v11.021l6.0278961 2.9949932 5.9721039-2.9709932v-6.045h-4c-.5522847 0-1-.44771525-1-1zm1.5 9c.2761424 0 .5.2238576.5.5s-.2238576.5-.5.5h-7c-.27614237 0-.5-.2238576-.5-.5s.22385763-.5.5-.5zm1-2c.2761424 0 .5.2238576.5.5s-.2238576.5-.5.5h-8c-.27614237 0-.5-.2238576-.5-.5s.22385763-.5.5-.5zm-5-2c.2761424 0 .5.22385763.5.5s-.2238576.5-.5.5h-3c-.27614237 0-.5-.22385763-.5-.5s.22385763-.5.5-.5zm3.5-4.58198052v3.58198052h3.5819805zm-2.5 2.58198052c.2761424 0 .5.22385763.5.5s-.2238576.5-.5.5h-4c-.27614237 0-.5-.22385763-.5-.5s.22385763-.5.5-.5z" fill="#414b5d" fill-rule="evenodd"/></svg>