<svg height="24" viewBox="0 0 24 24" width="24" xmlns="http://www.w3.org/2000/svg"><path d="m22.5 4c.2761424 0 .5.22385763.5.5v15c0 .2761424-.2238576.5-.5.5h-21c-.27614237 0-.5-.2238576-.5-.5v-15c0-.27614237.22385763-.5.5-.5zm-3.5 1h-14v14h14zm-15 12h-2v2h2zm18 0h-2v2h2zm-18-3h-2v2h2zm18 0h-2v2h2zm-11.7427521-5.42874646 5 2.99999996c.3236695.1942017.3236695.6632913 0 .857493l-5 3c-.33326228.1999573-.7572479-.0400993-.7572479-.4287465v-6c0-.38864724.42398562-.62870382.7572479-.42874646zm.2427521 1.31184165v4.23380961l3.5281747-2.1169048zm-6.5 1.11690481h-2v2h2zm18 0h-2v2h2zm-18-3h-2v2h2zm18 0h-2v2h2zm0-3h-2v2h2zm-18 0h-2v2h2z" fill="#414b5d"/></svg>