<svg height="24" viewBox="0 0 24 24" width="24" xmlns="http://www.w3.org/2000/svg"><circle cx="12" cy="12" fill="#ea4c89" r="9.6"/><path d="m12 2c-5.5206 0-10 4.4794-10 10s4.4794 10 10 10c5.50976 0 10-4.4794 10-10s-4.49024-10-10-10zm6.6052 4.60954c1.19306 1.45336 1.9089 3.30804 1.9306 5.31454-.282-.05424-3.10196-.62906-5.9436-.27116-.06508-.14098-.11932-.29284-.18438-.44468-.17354-.41214-.36878-.83514-.564-1.23644 3.14534-1.27982 4.577-3.12364 4.76138-3.36226zm-6.6052-3.134486c2.1692 0 4.15402.813446 5.6616 2.147506-.15184.21692-1.44252 1.94144-4.47938 3.08026-1.39914-2.5705-2.95012-4.67462-3.18872-5 .6399-.151844 1.31236-.227766 2.0065-.227766zm-3.6334.802606c.22776.30368 1.7462 2.41866 3.16702 4.93492-3.99132 1.0629-7.51626 1.04122-7.895876 1.0412829.553136-2.6464829 2.342736-4.8482229 4.728856-5.9762029zm-4.913238 7.73318c0-.08676 0-.17352 0-.2603.368764.01084 4.511938.06508 8.774398-1.21474.24946.47722.47722.96528.69414 1.45336-.10846.03254-.22776.06508-.33622.0976-4.40346 1.42084-6.7462 5.3037-6.94142 5.62908-1.35576-1.5076-2.190898-3.5141-2.190898-5.705zm8.546638 8.5358c-1.97396 0-3.7961-.67246-5.23862-1.80044.15186-.31452 1.88722-3.6551 6.70282-5.33622.0217-.01084.03254-.01084.05424-.0217 1.2039 3.1128 1.69198 5.72668 1.82212 6.47506-1.03036.44468-2.15834.6833-3.34056.6833zm4.7614-1.4642c-.08678-.52062-.5423-3.0152-1.65944-6.0846 2.67896-.423 5.02168.27114 5.31452.36876-.36876 2.37526-1.73536 4.42516-3.65508 5.71584z" fill="#c32361"/></svg>