<?xml version="1.0" encoding="UTF-8"?>
<svg width="24px" height="24px" viewBox="0 0 24 24" version="1.1" xmlns="http://www.w3.org/2000/svg" xmlns:xlink="http://www.w3.org/1999/xlink">
  <circle fill="#EA4C89" cx="12" cy="12" r="9.6"></circle>
  <path d="M12,2 C6.4794,2 2,6.4794 2,12 C2,17.5206 6.4794,22 12,22 C17.50976,22 22,17.5206 22,12 C22,6.4794 17.50976,2 12,2 Z M18.6052,6.60954 C19.79826,8.0629 20.5141,9.91758 20.5358,11.92408 C20.2538,11.86984 17.43384,11.29502 14.5922,11.65292 C14.52712,11.51194 14.47288,11.36008 14.40782,11.20824 C14.23428,10.7961 14.03904,10.3731 13.84382,9.9718 C16.98916,8.69198 18.42082,6.84816 18.6052,6.60954 Z M12,3.475054 C14.1692,3.475054 16.15402,4.2885 17.6616,5.62256 C17.50976,5.83948 16.21908,7.564 13.18222,8.70282 C11.78308,6.13232 10.2321,4.0282 9.9935,3.70282 C10.6334,3.550976 11.30586,3.475054 12,3.475054 Z M8.3666,4.27766 C8.59436,4.58134 10.1128,6.69632 11.53362,9.21258 C7.5423,10.27548 4.01736,10.2538 3.637744,10.2538629 C4.19088,7.60738 5.98048,5.40564 8.3666,4.27766 Z M3.453362,12.01084 C3.453362,11.92408 3.453362,11.83732 3.453362,11.75054 C3.822126,11.76138 7.9653,11.81562 12.22776,10.5358 C12.47722,11.01302 12.70498,11.50108 12.9219,11.98916 C12.81344,12.0217 12.69414,12.05424 12.58568,12.08676 C8.18222,13.5076 5.83948,17.39046 5.64426,17.71584 C4.2885,16.20824 3.453362,14.20174 3.453362,12.01084 Z M12,20.54664 C10.02604,20.54664 8.2039,19.87418 6.76138,18.7462 C6.91324,18.43168 8.6486,15.0911 13.4642,13.40998 C13.4859,13.39914 13.49674,13.39914 13.51844,13.38828 C14.72234,16.50108 15.21042,19.11496 15.34056,19.86334 C14.3102,20.30802 13.18222,20.54664 12,20.54664 Z M16.7614,19.08244 C16.67462,18.56182 16.2191,16.06724 15.10196,12.99784 C17.78092,12.57484 20.12364,13.26898 20.41648,13.3666 C20.04772,15.74186 18.68112,17.79176 16.7614,19.08244 Z" fill="#C32361"></path>
</svg>
