<svg height="24" viewBox="0 0 24 24" width="24" xmlns="http://www.w3.org/2000/svg"><path d="m20.6808876 13.9388412c-.2730687 1.4048283-2.4457082 2.9422747-4.9409872 3.2402361-1.3011802.1552575-2.5822961.2979613-3.9483905.2353004-2.2341202-.1023605-3.99699574-.5332618-3.99699574-.5332618 0 .2174893.01341202.4245708.04023605.6182403.29045065 2.2048283 2.18626609 2.3369099 3.98208159 2.3984979 1.8125536.0620171 3.4265021-.4468884 3.4265021-.4468884l.0744635 1.6386266s-1.2678111.680794-3.5262875.8060086c-1.2453863.0684549-2.79173823-.0313305-4.59281119-.5080473-3.90622317-1.0339055-4.57800429-5.1977467-4.68079399-9.4226394-.03133047-1.2543992-.01201717-2.4372318-.01201717-3.42650218 0-4.32017168 2.8305794-5.58648069 2.8305794-5.58648069 1.42725322-.6554721 3.87628756-.93111588 6.42231755-.95193133h.0625537c2.54603.02081545 4.9966738.29645923 6.4238197.95193133 0 0 2.8304721 1.26630901 2.8304721 5.58648069 0 0 .0355151 3.18744638-.3947424 5.40042918" fill="#3088d4"/><path d="m17.7368961 8.87356223v5.23100857h-2.0724249v-5.0772532c0-1.07027897-.4503218-1.61351932-1.3510729-1.61351932-.9959228 0-1.4950644.6444206-1.4950644 1.91866953v2.77907729h-2.0601931v-2.77907729c0-1.27424893-.499249-1.91866953-1.4951717-1.91866953-.90075107 0-1.35107296.54324035-1.35107296 1.61351932v5.0772532h-2.0724249v-5.23100857c0-1.06909871.27221031-1.91866953.81899142-2.5472103.5638412-.62854077 1.30225322-.95075107 2.21888412-.95075107 1.06051502 0 1.86362662.40761802 2.39463522 1.22296137l.5162017.86534335.516309-.86534335c.5309013-.81534335 1.3340129-1.22296137 2.3946352-1.22296137.9165236 0 1.6549356.3222103 2.2188841.95075107.5466738.62854077.8188841 1.47811159.8188841 2.5472103" fill="#fff"/></svg>