<?xml version="1.0" encoding="UTF-8"?>
<svg width="24px" height="24px" viewBox="0 0 24 24" version="1.1" xmlns="http://www.w3.org/2000/svg" xmlns:xlink="http://www.w3.org/1999/xlink">
    <!-- Generator: Sketch 52.5 (67469) - http://www.bohemiancoding.com/sketch -->
    <title>pdf</title>
    <desc>Created with Sketch.</desc>
    <g id="pdf" stroke="none" stroke-width="1" fill="none" fill-rule="evenodd">
        <path d="M9,11 L17.75,11 C18.9926407,11 20,11.8954305 20,13 L20,18 C20,19.1045695 18.9926407,20 17.75,20 L9,20 L9,21 L21,21 L21,8 L17,8 C16.4477153,8 16,7.55228475 16,7 L16,3 L9,3 L9,11 Z M8,11 L8,3 C8,2.44771525 8.44771525,2 9,2 L15.5819805,2 L16.9961941,2 L17,2 L17,2.00380592 L21.9961941,7 L22,7 L22,21 C22,21.5522847 21.5522847,22 21,22 L9,22 C8.44771525,22 8,21.5522847 8,21 L8,20 L4.25,20 C3.00735931,20 2,19.1045695 2,18 L2,13 C2,11.8954305 3.00735931,11 4.25,11 L8,11 Z M10.5,11 L14.5,11 L10.5,11 Z M17,3.41801948 L17,7 L20.5819805,7 L17,3.41801948 Z M10.5,9 L18.5,9 C18.7761424,9 19,9.22385763 19,9.5 C19,9.77614237 18.7761424,10 18.5,10 L10.5,10 C10.2238576,10 10,9.77614237 10,9.5 C10,9.22385763 10.2238576,9 10.5,9 Z M4.14285714,12 C3.51167457,12 3,12.4477153 3,13 L3,18 C3,18.5522847 3.51167457,19 4.14285714,19 L17.8571429,19 C18.4883254,19 19,18.5522847 19,18 L19,13 C19,12.4477153 18.4883254,12 17.8571429,12 L4.14285714,12 Z M15,16 L15,18 L14,18 L14,13 L17,13 L17,14 L15,14 L15,15 L17,15 L17,16 L15,16 Z M9,13 L11,13 C12.1045695,13 13,14.1192881 13,15.5 C13,16.8807119 12.1045695,18 11,18 L9,18 L9,13 Z M10,14 L10,17 L10.9999998,17 C11.4970697,17 12,16.3713371 12,15.5 C12,14.6286629 11.4970697,14 11,14 L10,14 Z M6,16 L6,18 L5,18 L5,13 L7,13 C7.82842712,13 8.5,13.6715729 8.5,14.5 C8.5,15.3284271 7.82842712,16 7,16 L6,16 Z M6.99999991,15 C7.27614237,15 7.5,14.7761424 7.5,14.5 C7.5,14.2238576 7.27614237,14 7,14 L6,14 L6,15 L6.99999991,15 Z" id="Shape" fill="#000000" fill-rule="nonzero"></path>
    </g>
</svg>