<svg height="24" viewBox="0 0 24 24" width="24" xmlns="http://www.w3.org/2000/svg"><path d="m9 11h8.75c1.2426407 0 2.25.8954305 2.25 2v5c0 1.1045695-1.0073593 2-2.25 2h-8.75v1h12v-13h-4c-.5522847 0-1-.44771525-1-1v-4h-7zm-1 0v-8c0-.55228475.44771525-1 1-1h6.5819805 1.4142136.0038059v.00380592l4.9961941 4.99619408h.0038059v14c0 .5522847-.4477153 1-1 1h-12c-.55228475 0-1-.4477153-1-1v-1h-3.75c-1.24264069 0-2.25-.8954305-2.25-2v-5c0-1.1045695 1.00735931-2 2.25-2zm2.5 0h4zm6.5-7.58198052v3.58198052h3.5819805zm-6.5 5.58198052h8c.2761424 0 .5.22385763.5.5s-.2238576.5-.5.5h-8c-.2761424 0-.5-.22385763-.5-.5s.2238576-.5.5-.5zm-6.35714286 3c-.63118257 0-1.14285714.4477153-1.14285714 1v5c0 .5522847.51167457 1 1.14285714 1h13.71428576c.6311825 0 1.1428571-.4477153 1.1428571-1v-5c0-.5522847-.5116746-1-1.1428571-1zm10.85714286 4v2h-1v-5h3v1h-2v1h2v1zm-6-3h2c1.1045695 0 2 1.1192881 2 2.5s-.8954305 2.5-2 2.5h-2zm1 1v3h.9999998c.4970699 0 1.0000002-.6286629 1.0000002-1.5s-.5029303-1.5-1-1.5zm-4 2v2h-1v-5h2c.82842712 0 1.5.6715729 1.5 1.5s-.67157288 1.5-1.5 1.5zm.99999991-1c.27614246 0 .50000009-.2238576.50000009-.5s-.22385763-.5-.5-.5h-1v1z"/></svg>