<svg viewBox="0 0 16 16" xmlns="http://www.w3.org/2000/svg"><path d="m2 8.01035534c0-.27614238.22385763-.5.5-.5h9.793l-3.14655339-3.14644661c-.17356635-.17356635-.1928515-.44299075-.05785545-.63785889l.05785545-.06924789c.17356635-.17356635.44299075-.1928515.63785889-.05785545l.06924789.05785545 3.96464471 3.96464466c.1909229.19092299.2121366.48728983.0636409.70164478l-.0636409.07617268-3.96464471 3.96464463c-.19526215.1952622-.51184463.1952622-.70710678 0-.17356635-.1735663-.1928515-.4429907-.05785545-.6378589l.05785545-.0692479 3.14655339-3.14644656h-9.793c-.27614237 0-.5-.22385763-.5-.5z"/></svg>