<svg viewBox="0 0 24 24" xmlns="http://www.w3.org/2000/svg"><path d="m14.7843055 5.58859116.0692479.05785545 5.9646447 5.96464469c.1909229.190923.2121366.4872898.0636409.7016448l-.0636409.0761726-5.9646447 5.9646447c-.1952622.1952621-.5118446.1952621-.7071068 0-.1735663-.1735664-.1928515-.4429908-.0578554-.6378589l.0578554-.0692479 5.1465534-5.1464466h-15.793c-.27614237 0-.5-.2238576-.5-.5s.22385763-.5.5-.5h15.793l-5.1465534-5.14644661c-.1735663-.17356635-.1928515-.44299075-.0578554-.63785889l.0578554-.06924789c.1735664-.17356635.4429908-.1928515.6378589-.05785545z" fill-rule="evenodd"/></svg>