<svg viewBox="0 0 24 24" xmlns="http://www.w3.org/2000/svg"><path d="m20 6v10c0 .5522847-.4477153 1-1 1h-5c-1.1045695 0-2 .8954305-2 2 0-1.1045695-.8954305-2-2-2h-5c-.55228475 0-1-.4477153-1-1v-10h-1v12h6c1.1946925 0 2.2670555.5237549 3 1.3541756.7329445-.8304207 1.8053075-1.3541756 3-1.3541756h6v-12zm-16-1v-1c0-.55228475.44771525-1 1-1h5c.7683544 0 1.4692435.28885357 2 .76389349.5307565-.47503992 1.2316456-.76389349 2-.76389349h5c.5522847 0 1 .44771525 1 1v1h1c.5522847 0 1 .44771525 1 1v12c0 .5522847-.4477153 1-1 1h-6c-1.6568542 0-3 1.3431458-3 3 0-1.6568542-1.3431458-3-3-3h-6c-.55228475 0-1-.4477153-1-1v-12c0-.55228475.44771525-1 1-1zm1-1v12h5c.7683544 0 1.4692435.2888536 2 .7638935.5307565-.4750399 1.2316456-.7638935 2-.7638935h5v-12h-5c-1.1045695 0-2 .8954305-2 2 0-1.1045695-.8954305-2-2-2zm1.5 7h4c.2761424 0 .5.2238576.5.5s-.2238576.5-.5.5h-4c-.27614237 0-.5-.2238576-.5-.5s.22385763-.5.5-.5zm7-3h4c.2761424 0 .5.22385763.5.5v3c0 .2761424-.2238576.5-.5.5h-4c-.2761424 0-.5-.2238576-.5-.5v-3c0-.27614237.2238576-.5.5-.5zm.5 1v2h3v-2zm-7.5-3h4c.2761424 0 .5.22385763.5.5v3c0 .27614237-.2238576.5-.5.5h-4c-.27614237 0-.5-.22385763-.5-.5v-3c0-.27614237.22385763-.5.5-.5zm.5 1v2h3v-2zm-.5 6h1c.27614237 0 .5.2238576.5.5s-.22385763.5-.5.5h-1c-.27614237 0-.5-.2238576-.5-.5s.22385763-.5.5-.5zm3 0h1c.2761424 0 .5.2238576.5.5s-.2238576.5-.5.5h-1c-.27614237 0-.5-.2238576-.5-.5s.22385763-.5.5-.5zm4-7h1c.2761424 0 .5.22385763.5.5s-.2238576.5-.5.5h-1c-.2761424 0-.5-.22385763-.5-.5s.2238576-.5.5-.5zm0 7h4c.2761424 0 .5.2238576.5.5s-.2238576.5-.5.5h-4c-.2761424 0-.5-.2238576-.5-.5s.2238576-.5.5-.5zm3-7h1c.2761424 0 .5.22385763.5.5s-.2238576.5-.5.5h-1c-.2761424 0-.5-.22385763-.5-.5s.2238576-.5.5-.5z" fill-rule="evenodd"/></svg>