<svg viewBox="0 0 24 24" xmlns="http://www.w3.org/2000/svg"><path d="m10 6c2.1632874 0 4.0056987 1.3738339 4.7023514 3.29661911 1.1148205-.53767215 2.4938399-.34306853 3.4189689.58206055.5326483.53264824.8231314 1.21575874.8714493 1.91251794l.0072304.2088024c1.6568542 0 3 1.3431458 3 3s-1.3431458 3-3 3h-13.5c-1.93299662 0-3.5-1.5670034-3.5-3.5 0-1.7006139 1.2128838-3.1179436 2.82080722-3.434145l.18019278-.030855-.001-.035c0-2.76142375 2.23857625-5 5-5zm0 1c-2.209139 0-4 1.790861-4 4 0 .3763316.05197054.7405249.14912612 1.0857943-.20619022-.0560873-.42418895-.0857943-.64912612-.0857943l-.19865725.0077776-.16804872.020075c-1.20653965.1758805-2.13329403 1.2157864-2.13329403 2.4721474 0 1.3254834 1.03153594 2.4100387 2.33562431 2.4946823l.16437569.0053177h13.5c1.1045695 0 2-.8954305 2-2s-.8954305-2-2-2l-.1740229.0089953c-.1446764.4060868-.379562.7872303-.7046568 1.112325-.1952621.1952622-.5118446.1952622-.7071067 0-.1735664-.1735663-.1928515-.4429907-.0578555-.6378589l.0629448-.0742664c.0829853-.0829929.1570957-.1715935.222325-.2646085l.0901731-.1435156c.084318-.1455296.1508156-.3026867.1965051-.468477l.0386428-.1685572.0143696-.0895427-.0068845.0510491c.1000441-.6132941-.0863171-1.2658533-.5602204-1.7397567-.6686803-.66868023-1.6930529-.76488228-2.4640791-.2886061.0233998.1605488.0382589.3222202.045246.4859301l.0046195.2168896c0 .2761424-.2238576.5-.5.5-.2454599 0-.4496084-.1768752-.4919443-.4101244l-.0080557-.0898756c0-2.209139-1.790861-4-4-4z"/></svg>