<svg viewBox="0 0 24 24" xmlns="http://www.w3.org/2000/svg"><path d="m12.0000853 2c5.5228589 0 9.9999147 4.47709841 9.9999147 10.0000853 0 5.5230295-4.4770558 9.9999573-9.9999147 9.9999573-5.52302953 0-10.0000853-4.4769278-10.0000853-9.9999573 0-5.52298689 4.47705577-10.0000853 10.0000853-10.0000853zm0 1.64240003c-4.60850067 0-8.35768527 3.74935514-8.35768527 8.35768527 0 4.6083727 3.7491846 8.3576852 8.35768527 8.3576852 4.6083301 0 8.3575147-3.7493125 8.3575147-8.3576852 0-4.60833013-3.7491846-8.35768527-8.3575147-8.35768527zm-.2948578 2.2638533c.178557-.11903797.4110051-.11903797.5895194 0l5.651831 3.76785889c.0029418.00196123.0056705.00456199.0087829.00652322.0082712.00584104.0161161.01202317.0240463.0182053.0102751.00810073.0203371.01658517.0301006.02536805.0072906.00652322.0141976.01368596.0211471.02080607.0092519.00912397.0180348.01888747.0265192.02860834.0061822.00750382.0123643.0153061.0181627.02310837.0080155.01040303.0153487.02114715.0225115.03223235.005031.00810072.0102325.01624408.0150929.02472852.0066938.01134101.0124922.02306574.0180774.03513155.0040504.0084418.0082286.01722469.0118527.02600758.0052015.01266271.0094224.0256665.0136859.03871292.0027287.00844181.005969.01688361.0082713.0256665.0039224.01462393.0066511.02958891.0092945.04459661.001279.0078023.0032403.0152635.0043488.0230657.0029418.0227673.0047752.0458757.0047752.0692825v3.7678589c0 .0234068-.0018334.0465152-.0047752.0696236-.0011085.0075038-.0030698.0152635-.0043488.0227246-.0026434.0150077-.0053721.0299301-.0092945.0445967-.0023023.0087828-.0055426.0172246-.0082713.0257091-.0042635.0129611-.0084844.0260076-.0136859.0390114-.0036241.0088255-.0078023.0172673-.0118527.0257091-.0055852.0119805-.0113836.0237053-.0180774.03543-.0048604.008186-.0100619.0162441-.0150929.0243874-.0071628.0110852-.014496.0218293-.0225115.0322324-.0057984.0081433-.0119805.0156045-.0181627.0230657-.0084844.0097635-.0172673.019527-.0265192.028651-.0069495.0071201-.0138565.0142828-.0211471.0207634-.0097635.0088682-.0198255.01731-.0301006.0254107-.0079302.0062248-.0157751.0123643-.0240463.0182053-.0031124.0019612-.0058411.004562-.0087829.0064806l-5.651831 3.7679015c-.0892785.059519-.1920297.089449-.2946531.089449-.1027939 0-.2055878-.02993-.2948663-.089449l-5.65178832-3.7679015c-.00294184-.0019186-.00571314-.0045194-.00878289-.0064806-.00831389-.005841-.01611617-.0119805-.02391844-.0182053-.01040303-.0081007-.02050762-.0165425-.03005794-.0254107-.00750383-.0064806-.01432549-.0136433-.02131769-.0207634-.00925188-.009124-.01803477-.0188875-.02634867-.028651-.00635267-.0074612-.0125348-.0149224-.01837584-.0230657-.00780228-.0104031-.0153061-.0211472-.02229831-.0322324-.00537205-.0081433-.01040303-.0162014-.01526346-.0243874-.00652321-.0117247-.01236426-.0234495-.0180774-.03543-.00405036-.0084418-.00827127-.0168836-.01185264-.0257091-.00520151-.0130038-.00942242-.0260503-.01368595-.0390114-.0027713-.0084845-.00584105-.0169263-.00827127-.0257091-.00392245-.0146666-.00652321-.029589-.00929451-.0445967-.00127906-.0074611-.00324029-.0152208-.0042209-.0227246-.00311238-.0231084-.00486044-.0462168-.00486044-.0696236v-3.7678589c0-.0234068.00174806-.0465152.00486044-.0692825.00098061-.0078022.00294184-.0152634.0042209-.0230657.0027713-.0150077.00537206-.02997268.00929451-.04459661.00243022-.00878289.00549997-.01722469.00827127-.0256665.00426353-.01304642.00848444-.02605021.01368595-.03871292.00358137-.00878289.00780228-.01756578.01185264-.02600758.00571314-.01206581.01155419-.02379054.0180774-.03513155.00486043-.00848444.00989141-.0166278.01526346-.02472852.00699221-.0110852.01449603-.02182932.02229831-.03223235.00584104-.00780227.01202317-.01560455.01837584-.02310837.0083139-.00972087.01709679-.01948437.02634867-.02860834.0069922-.00712011.01381386-.01428285.02131769-.02080607.00955032-.00878288.01965491-.01726732.03005794-.02536805.00780227-.00618213.01560455-.01236426.02391844-.0182053.00306975-.00196123.00584105-.00456199.00878289-.00652322zm3.129991 6.73331997-2.3038026 1.5407573v2.4785224l4.1635152-2.7755204zm-5.67029207 0-1.85988309 1.2437593 4.16355786 2.7755204v-2.4785224zm2.83516737-1.8966348-1.879538 1.2571468 1.879538 1.2571467 1.8793675-1.2571467zm5.1202957.3679007-1.3293711.8892461 1.3293711.8892887zm-10.24076196 0v1.7785348l1.32949899-.8892887zm4.58897366-3.76952168-4.16355786 2.77547788 1.85988309 1.2441429 2.30367477-1.54109835zm1.0628147 0v2.47852243l2.3038026 1.54109835 1.8597126-1.2441429z" fill="#1a1919" fill-rule="evenodd"/></svg>