<svg viewBox="0 0 24 24" xmlns="http://www.w3.org/2000/svg"><path d="m14.124078 20.3900631c-.6154909.3864555-1.343686.6099369-2.124078.6099369s-1.5085871-.2234814-2.12407803-.6099369c-.72728809.3760948-1.74698829.6099369-2.87592197.6099369-2.209139 0-4-.8954305-4-2v-10c0-1.1045695 1.790861-2 4-2s4 .8954305 4 2v4.1260175c.3196199-.0822645.6547004-.1260175 1-.1260175s.6803801.043753 1 .1260175v-8.1260175c0-1.1045695 1.790861-2 4-2s4 .8954305 4 2v14c0 1.1045695-1.790861 2-4 2-1.1289337 0-2.1486339-.2338421-2.875922-.6099369zm1.4166411-1.5273315c-.1547953.293631-.3450463.5656683-.5650569.8104159.5602366.2066159 1.2684204.3268525 2.0243378.3268525.9271995 0 1.782583-.1808983 2.3812135-.4802136.4415644-.2207822.6187865-.4302823.6187865-.5197864v-.6770878c-.7329445.4152104-1.8053075.6770878-3 .6770878-.5149491 0-1.0071709-.0486535-1.4592809-.1372684zm.4587937-1.9258031c.0003244.020985.0004872.0420093.0004872.0630715 0 .3133812-.0360381.6183453-.1041961.910974.3468772.0578614.7193505.089026 1.1041961.089026.9271995 0 1.782583-.1808983 2.3812135-.4802136.4415644-.2207822.6187865-.4302823.6187865-.5197864v-.6770878c-.7329445.4152104-1.8053075.6770878-3 .6770878-.345475 0-.6807206-.0218987-1.0004872-.0630715zm-.642599-2.112911c.2139028.3293141.3806622.6920755.4907145 1.0787203.3604728.0631349.749648.0972622 1.1523717.0972622.9271995 0 1.782583-.1808983 2.3812135-.4802136.4415644-.2207822.6187865-.4302823.6187865-.5197864v-.6770878c-.7329445.4152104-1.8053075.6770878-3 .6770878-.5856106 0-1.1418286-.0629222-1.6430862-.1759825zm-6.89763287 4.0387141c-.45211002.0886149-.94433183.1372684-1.45928093.1372684-1.19469253 0-2.26705555-.2618774-3-.6770878v.6770878c0 .0895041.17722212.2990042.61878647.5197864.59863057.2993153 1.45401401.4802136 2.38121353.4802136.75591738 0 1.46410118-.1202366 2.0243378-.3268525-.22001064-.2447476-.41026164-.5167849-.56505687-.8104159zm-.45879375-1.9258031c-.3197666.0411728-.65501217.0630715-1.00048718.0630715-1.19469253 0-2.26705555-.2618774-3-.6770878v.6770879c0 .089504.17722212.2990041.61878647.5197863.59863057.2993153 1.45401401.4802136 2.38121353.4802136.38484559 0 .75731895-.0311646 1.10419605-.089026-.06815796-.2926287-.10419605-.5975928-.10419605-.910974 0-.0210622.00016279-.0420865.00048718-.0630715zm.64259898-2.112911c-.50125756.1130603-1.0574756.1759825-1.64308616.1759825-1.19469253 0-2.26705555-.2618774-3-.6770878v.6770879c0 .089504.17722212.2990041.61878647.5197863.59863057.2993153 1.45401401.4802136 2.38121353.4802136.40272365 0 .79189886-.0341273 1.15237169-.0972622.11005233-.3866448.27681176-.7494062.49071447-1.0787203zm11.35691384-1.8240174v-.6770879c-.7329445.4152104-1.8053075.6770878-3 .6770878s-2.2670555-.2618774-3-.6770878v.6770879c0 .089504.1772221.2990041.6187865.5197863.5986305.2993153 1.454014.4802136 2.3812135.4802136s1.782583-.1808983 2.3812135-.4802136c.4415644-.2207822.6187865-.4302823.6187865-.5197864zm0-2v-.6770879c-.7329445.4152104-1.8053075.6770878-3 .6770878s-2.2670555-.2618774-3-.6770878v.6770879c0 .089504.1772221.2990041.6187865.5197863.5986305.2993153 1.454014.4802136 2.3812135.4802136s1.782583-.1808983 2.3812135-.4802136c.4415644-.2207822.6187865-.4302823.6187865-.5197864zm0-2.00000002v-.67708788c-.7329445.41521036-1.8053075.6770878-3 .6770878s-2.2670555-.26187744-3-.6770878v.67708788c0 .08950404.1772221.29900411.6187865.51978629.5986305.29931529 1.454014.48021363 2.3812135.48021363s1.782583-.18089834 2.3812135-.48021363c.4415644-.22078218.6187865-.43028225.6187865-.51978637zm0-2v-.67708788c-.7329445.41521036-1.8053075.6770878-3 .6770878s-2.2670555-.26187744-3-.6770878v.67708788c0 .08950404.1772221.29900411.6187865.51978629.5986305.29931529 1.454014.48021363 2.3812135.48021363s1.782583-.18089834 2.3812135-.48021363c.4415644-.22078218.6187865-.43028225.6187865-.51978637zm-3-1.00000008c.9271995 0 1.782583-.18089834 2.3812135-.48021363.4415644-.22078218.6187865-.43028225.6187865-.51978637s-.1772221-.29900419-.6187865-.51978637c-.5986305-.29931529-1.454014-.48021363-2.3812135-.48021363s-1.782583.18089834-2.3812135.48021363c-.4415644.22078218-.6187865.43028225-.6187865.51978637s.1772221.29900419.6187865.51978637c.5986305.29931529 1.454014.48021363 2.3812135.48021363zm-7 7.0000001v-.6770879c-.73294445.4152104-1.80530747.6770878-3 .6770878s-2.26705555-.2618774-3-.6770878v.6770879c0 .089504.17722212.2990041.61878647.5197863.59863057.2993153 1.45401401.4802136 2.38121353.4802136s1.78258296-.1808983 2.38121353-.4802136c.44156435-.2207822.61878647-.4302823.61878647-.5197864zm0-2v-.6770879c-.73294445.4152104-1.80530747.6770878-3 .6770878s-2.26705555-.2618774-3-.6770878v.6770878c0 .0895041.17722212.2990042.61878647.5197864.59863057.2993153 1.45401401.4802136 2.38121353.4802136s1.78258296-.1808983 2.38121353-.4802136c.44156435-.2207822.61878647-.4302823.61878647-.5197864zm-3-1.0000001c.92719952 0 1.78258296-.18089834 2.38121353-.48021363.44156435-.22078218.61878647-.43028225.61878647-.51978637s-.17722212-.29900419-.61878647-.51978637c-.59863057-.29931529-1.45401401-.48021363-2.38121353-.48021363s-1.78258296.18089834-2.38121353.48021363c-.44156435.22078218-.61878647.43028225-.61878647.51978637s.17722212.29900419.61878647.51978637c.59863057.29931529 1.45401401.48021363 2.38121353.48021363zm5 10c1.6568542 0 3-1.3431458 3-3s-1.3431458-3-3-3-3 1.3431458-3 3 1.3431458 3 3 3z"/></svg>