<svg viewBox="0 0 24 24" xmlns="http://www.w3.org/2000/svg"><path d="m20 5c1.1045695 0 2 .8954305 2 2v10c0 1.1045695-.8954305 2-2 2h-16c-1.1045695 0-2-.8954305-2-2v-10c0-1.1045695.8954305-2 2-2zm1 3-9 6-9-6v1.202l4.854 3.236-4.82046375 4.8197642c.08160964.3067778.30540427.5555911.59652117.6715772l.11217835.0371223 4.96076423-4.9634637 3.297 2.1988504 3.297-2.1978504 4.9607642 4.9624637c.3067778-.0816096.5555911-.3054042.6715772-.5965211l.0371223-.1121784-4.8214637-4.8197642 4.855-3.236z"/></svg>