<svg viewBox="0 0 24 24" xmlns="http://www.w3.org/2000/svg"><path d="m20 5c1.1045695 0 2 .8954305 2 2v10c0 1.1045695-.8954305 2-2 2h-16c-1.1045695 0-2-.8954305-2-2v-10c0-1.1045695.8954305-2 2-2zm-11.297 8.003-4.96177513 4.9631943c.04615476.0123303.09362452.0214413.142154.027078l.11662113.0067277h16c.0894906 0 .1762356-.0117552.2587751-.0338057l-4.9617751-4.9621943-3.297 2.1978504zm-5.703-3.801v7.798c0 .0894906.01175521.1762356.03380574.2587751l4.82019426-4.8207751zm18 0-4.855 3.236 4.8211943 4.8207751c.0123303-.0461547.0214413-.0936245.027078-.142154l.0067277-.1166211zm-1-3.202h-16l-.11662113.00672773c-.45908186.05332164-.8233295.41756928-.87665114.87665114l-.00672773.11662113v1l9 6 9-6v-1c0-.51283584-.3860402-.93550716-.8833789-.99327227z"/></svg>