<svg viewBox="0 0 24 24" xmlns="http://www.w3.org/2000/svg"><path d="m20 8c1.1045695 0 2 .8954305 2 2v10c0 1.1045695-.8954305 2-2 2h-16c-1.1045695 0-2-.8954305-2-2v-10c0-1.1045695.8954305-2 2-2v1l-.11662113.00672773c-.45908186.05332164-.8233295.41756928-.87665114.87665114l-.00672773.11662113v1l9 6 9-6v-1c0-.51283584-.3860402-.93550716-.8833789-.99327227l-.1166211-.00672773zm-11.297 8.003-4.96177513 4.9631943c.04615476.0123303.09362452.0214413.142154.027078l.11662113.0067277h16c.0894906 0 .1762356-.0117552.2587751-.0338057l-4.9617751-4.9621943-3.297 2.1978504zm-5.703-3.801v7.798c0 .0894906.01175521.1762356.03380574.2587751l4.82019426-4.8207751zm18 0-4.855 3.236 4.8211943 4.8207751c.0123303-.0461547.0214413-.0936245.027078-.142154l.0067277-.1166211zm-6.5-.202c.2761424 0 .5.2238576.5.5s-.2238576.5-.5.5h-7c-.27614237 0-.5-.2238576-.5-.5s.22385763-.5.5-.5zm-.5-10v.00380592l4.9961941 4.99619408h.0038059v5.333l-1 .667v-5h-4c-.5522847 0-1-.44771525-1-1v-4h-7v10l-1-.667v-9.333c0-.55228475.44771525-1 1-1zm1.5 8c.2761424 0 .5.2238576.5.5s-.2238576.5-.5.5h-8c-.27614237 0-.5-.2238576-.5-.5s.22385763-.5.5-.5zm-5-2c.2761424 0 .5.22385763.5.5s-.2238576.5-.5.5h-3c-.27614237 0-.5-.22385763-.5-.5s.22385763-.5.5-.5zm3.5-4.58198052v3.58198052h3.5819805zm-2.5 2.58198052c.2761424 0 .5.22385763.5.5s-.2238576.5-.5.5h-4c-.27614237 0-.5-.22385763-.5-.5s.22385763-.5.5-.5z" fill-rule="evenodd"/></svg>