<svg viewBox="0 0 16 16" xmlns="http://www.w3.org/2000/svg"><path d="m2 14h12v-7h1v7c0 .5522847-.4477153 1-1 1h-12c-.55228475 0-1-.4477153-1-1v-12c0-.55228475.44771525-1 1-1h7v1h-7zm13.5-14c.2761424 0 .5.22385763.5.5v4c0 .27614237-.2238576.5-.5.5s-.5-.22385763-.5-.5v-2.79289322l-6.29289322 6.29289322c-.19526214.19526215-.51184463.19526215-.70710678 0s-.19526215-.51184464 0-.70710678l6.2928932-6.29289322h-2.7928932c-.2761424 0-.5-.22385762-.5-.5 0-.27614237.2238576-.5.5-.5z" fill-rule="evenodd"/></svg>