<svg viewBox="0 0 24 24" xmlns="http://www.w3.org/2000/svg"><path d="m11 5c1.4225516 0 2.7757263.20792653 4.0008842.58273162l.0004369 1.04138593c-1.2052873-.3994827-2.5639545-.62411755-4.0013211-.62411755-4.97056275 0-9 2.6862915-9 6s4.02943725 6 9 6c1.4725349 0 2.8624721-.2357617 4.0895144-.6537534.8198046.4115011 1.8247301.6537534 2.9104856.6537534.4596783 0 .9048683-.0434222 1.3276558-.1247266-.6712184-.5082499-1.1298032-1.1561273-1.2768408-1.8743927l1.156175-.0002819-.127379.1248724c.2282251.8855549.9323712 1.6552949 1.920389 2.1747851-.8356605.4393823-1.8743941.6997437-3 .6997437-1.0621838 0-2.0470091-.2318479-2.8568312-.6271925-1.2623495.4027873-2.6653215.6271925-4.1431688.6271925-5.5228475 0-10-3.1340068-10-7 0-3.86599325 4.4771525-7 10-7zm7 0c.5522847 0 1 .44771525 1 1v3h2.6125741c.5522848 0 1 .44771525 1 1 0 .1074821-.0173279.2142613-.0513167.3162278l-1.3333333 4c-.1361141.4083421-.5182529.6837722-.9486833.6837722h-2.8650272c-.830047 0-1.6289304-.302257-2.2494992-.8458189l-.1647144-.1541811v.5c0 .2761424-.2238576.5-.5.5h-2c-.2761424 0-.5-.2238576-.5-.5v-6c0-.27614237.2238576-.5.5-.5h2c.2761424 0 .5.22385763.5.5v.5c.5522847 0 1-.44771525 1-1v-2.75c0-.13807119.1119288-.25.25-.25zm-4 4h-1v5h1zm3.5-3h-.5v2c0 1.0543618-.8158778 1.91816512-1.8507377 1.99451426l-.1492623.00548574v2.8000002l.1122251.1560111c.4689929.6052748 1.1741656.9826717 1.9379352 1.0371513l.1920603.0068374h2.7445362c.1856569 0 .3532181-.1024628.4394634-.2614599l.0360537-.0839971.9749994-3c.0162208-.0499103.0244829-.102063.0244829-.154543 0-.2454599-.1768751-.4496084-.4101243-.4919443l-.0898757-.0080557h-2.9617562v-3.5c0-.24545989-.1768752-.44960837-.4101244-.49194433z" fill-rule="evenodd"/></svg>