<svg viewBox="0 0 24 24" xmlns="http://www.w3.org/2000/svg"><path d="m6.5 2c.27614237 0 .5.22385763.5.5v.5c1.33333333.33333333 2.66666667.5 4 .5.7058824 0 1.1626298-.06228374 1.5461022-.14288622l.3655607-.0850804.3557908-.0875229c.4245878-.09973539.9090169-.18451048 1.7325463-.18451048 1.3333333 0 2.6666667.33333333 4 1v9c-1.3289388-.6666667-2.6611735-1-3.9967041-1-.7070456 0-1.1645457.0622837-1.5485052.1428862l-.3659646.0850804c-.0590814.014655-.1177497.0294118-.1768197.0440668l-.3657593.0850804c-.3836173.0806025-.8403647.1428862-1.5462471.1428862-1.33333333 0-2.66666667-.1666667-4-.5v9.5c0 .2761424-.22385763.5-.5.5s-.5-.2238576-.5-.5v-19c0-.27614237.22385763-.5.5-.5zm8.5 2c-.7058824 0-1.1626298.06228374-1.5461022.14288622l-.3655607.0850804-.3557908.0875229c-.4245878.09973539-.9090169.18451048-1.7325463.18451048-1.16666667 0-2.33333333-.12760417-3.5-.3828125l-.5-.1171875v7c1.33333333.3333333 2.66666667.5 4 .5.7058824 0 1.1626298-.0622837 1.5462471-.1428862l.3657593-.0850804c.05907-.014655.1177383-.0294118.1768197-.0440668l.3659646-.0850804c.3839595-.0806025.8414596-.1428862 1.5485052-.1428862.875658 0 1.7498991.143298 2.6227233.429894l.3739808.1316002v-6.9989942c-1-.375-2-.5625-3-.5625z" fill-rule="evenodd"/></svg>