<svg viewBox="0 0 24 24" xmlns="http://www.w3.org/2000/svg"><path d="m11.9990792 2.245c-5.52134815 0-9.9990792 4.47711716-9.9990792 10.0003069 0 4.4181835 2.86503576 8.1659965 6.83876117 9.4883207.50032229.0920839.68264833-.216704.68264833-.4819055 0-.2369624-.0085945-.8662021-.01350564-1.7004819-2.78154639.6040701-3.36842751-1.340741-3.36842751-1.340741-.45489426-1.1553454-1.11053132-1.4629055-1.11053132-1.4629055-.90794684-.6200313.06875594-.6077535.06875594-.6077535 1.00371405.0705977 1.5316615 1.0307253 1.5316615 1.0307253.89198564 1.5279782 2.34077167 1.0865896 2.9104638.8305964.09085607-.6458147.34930477-1.0865895.63476473-1.3364437-2.22044876-.2523097-4.5550815-1.1105313-4.5550815-4.9424476 0-1.0915006.38982166-1.98471405 1.02949753-2.68332358-.10313392-.25292366-.44629976-1.27014334.09822278-2.64649007 0 0 .83919089-.26888486 2.74962399 1.02520028.7974462-.22222904 1.6532122-.33272967 2.5034531-.33702692.8496271.00429725 1.7047792.11479788 2.5034532.33702692 1.9092053-1.29408514 2.7471684-1.02520028 2.7471684-1.02520028.5457503 1.37634673.2025845 2.39356641.1000645 2.64649007.6409036.69860953 1.0276558 1.59182298 1.0276558 2.68332358 0 3.8417386-2.3383161 4.6870684-4.5655176 4.934467.3585131.3087879.678351.9189969.678351 1.8521133 0 1.3364438-.0122778 2.4150527-.0122778 2.7428712 0 .2676571.1804844.5789005.6875595.4812917 3.9706559-1.3253937 6.8332361-5.0707511 6.8332361-9.4877069 0-5.52318974-4.4777311-10.0003069-10.0009208-10.0003069" fill="#161514" fill-rule="evenodd"/></svg>