<svg viewBox="0 0 24 24" xmlns="http://www.w3.org/2000/svg"><path d="m13.888675 2.61768134c.0695497.04636644.111325.12442427.111325.20801257v7.17430609h3.0657415c.2761423 0 .5.2238576.5.5 0 .0987125-.0292191.1952163-.0839749.2773501l-7.023754 10.535631c-.0765881.1148822-.2318055.1459257-.3466876.0693376-.0695497-.0463665-.111325-.1244243-.111325-.2080126v-7.1743061h-3.06574145c-.27614238 0-.5-.2238576-.5-.5 0-.0987125.02921901-.1952163.08397485-.2773501l7.023754-10.53563104c.0765881-.11488217.2318055-.14592564.3466876-.06933752zm-.888675 2.68431866-5.132 7.698h3.132v5.696l5.13-7.696h-3.13z"/></svg>