<svg viewBox="0 0 24 24" xmlns="http://www.w3.org/2000/svg"><path d="m12.4852814 11.7781746c-.7810486-.7810486-2.0473786-.7810486-2.82842715 0l-3.82842713 3.8284271c-.78104858.7810486-.78104858 2.0473786 0 2.8284271.78104859.7810486 2.04737855.7810486 2.82842713 0l3.49971355-3.4997135c.4111794.1098058.8364474.1529978 1.2587103.1295761-.0688719.0860038-.1431685.1690957-.2228899.2488171l-3.82842717 3.8284271c-1.17157287 1.1715729-3.07106781 1.1715729-4.24264069 0-1.17157287-1.1715729-1.17157287-3.0710678 0-4.2426407l3.82842713-3.8284271c1.17157283-1.17157286 3.07106783-1.17157286 4.24264073 0 .1952621.1952622.1952621.5118446 0 .7071068-.1952622.1952621-.5118447.1952621-.7071068 0zm2.1213203.7071068 3.8284271-3.82842715c.7810486-.78104858.7810486-2.04737854 0-2.82842713-.7810485-.78104858-2.0473785-.78104858-2.8284271 0l-3.4997135 3.49971354c-.4111794-.10980576-.8364474-.1529978-1.2587103-.12957614.0688719-.08600373.1431685-.16909565.2228899-.24881705l3.8284271-3.82842713c1.1715729-1.17157287 3.0710678-1.17157287 4.2426407 0 1.1715729 1.17157288 1.1715729 3.07106782 0 4.24264069l-3.8284271 3.82842717c-1.1715729 1.1715728-3.0710678 1.1715728-4.2426407 0-.1952621-.1952622-.1952621-.5118447 0-.7071068.1952622-.1952622.5118446-.1952622.7071068 0 .7810486.7810486 2.0473785.7810486 2.8284271 0z" fill-rule="evenodd"/></svg>