<svg viewBox="0 0 24 24" xmlns="http://www.w3.org/2000/svg"><path d="m6 18v-8.38h2.56v8.38zm2.64-10.7c.02.72-.52 1.3-1.38 1.3-.8 0-1.32-.58-1.32-1.3 0-.74.54-1.3 1.36-1.3s1.34.56 1.34 1.3m6.72 10.7v-4.64c0-1.08-.36-1.82-1.3-1.82-.7 0-1.12.5-1.32.98-.06.18-.08.42-.08.66v4.82h-2.56v-5.7c0-1.04-.04-1.92-.06-2.68h2.22l.12 1.18h.04c.34-.56 1.18-1.36 2.56-1.36 1.68 0 2.96 1.14 2.96 3.62v4.94zm6.64-14.24c0-.96-.8-1.76-1.76-1.76h-16.48c-.96 0-1.76.8-1.76 1.76v16.48c0 .96.8 1.76 1.76 1.76h16.48c.96 0 1.76-.8 1.76-1.76z" fill="#1d87bd"/></svg>