<svg viewBox="0 0 24 24" xmlns="http://www.w3.org/2000/svg"><path d="m11.8213382 2c2.4120285.0197199 4.7384471.26814999 6.1901107.85157398l.2749696.12039107.168404.09376774.1245457.07822797.1465513.10066819c.0521105.03742478.1072773.07878261.1648893.12426652l.1795597.14902298.1905625.17493756c.7793655.75312351 1.7347759 2.15599155 1.8099617 4.54214183l.0052607.38402886-.0081408.87268223-.0182656.65474207-.0206098.4963839-.028982.5307965-.0387477.5536387-.049907.5649107-.0624599.5646124c-.0461339.3737375-.1015656.7395626-.168153 1.082048-.2730687 1.4048283-2.4457082 2.9422747-4.9409872 3.2402361-1.3011802.1552575-2.5822961.2979613-3.9483905.2353004l-.2579788-.0133618-.5013612-.0345691-.478877-.0432528-.4527659-.0498041-.4230277-.0542226-.57084865-.0849539-.48353625-.0829002-.57861914-.1140549-.2499811-.0561424c0 .2174893.01341202.4245708.04023605.6182403.22486502 1.7069639 1.41194661 2.1715738 2.76989959 2.3229409l.3425902.0318535.346962.0220279.5226298.0216756c.3625107.0124034.7170772.0019699 1.0523768-.0226618l.3923867-.0358204.3695425-.0461336.3423503-.0531294.3108103-.0568081.2749222-.0571695.5017622-.1227356.1823511-.05243.0744635 1.6386266-.2152465.1005496-.1651435.0680768-.210422.0790268-.2548489.0861786c-.0461298.014748-.0940752.0296359-.1438186.0445843l-.319893.0897847c-.5686404.1487434-1.3135245.2877219-2.216915.3378078-1.2453863.0684549-2.79173823-.0313305-4.59281119-.5080473-3.07511186-.8139256-4.14571889-3.5675896-4.5122369-6.7637495l-.05346903-.5219385-.04235791-.528277-.03247912-.5331968-.02383261-.5366978-.01641842-.5387798c-.00783262-.3135998-.0125-.6227267-.01509522-.9254745l-.0013806-1.3128728.00445865-1.18815488c0-2.3658083.8488529-3.81580404 1.61686266-4.64354577l.19790521-.20201024.19056973-.17493756.1795665-.14902298.16489554-.12426652.14655683-.10066819.17742699-.10928878.15679594-.08274065c1.35213463-.62097357 3.62132489-.90104859 6.02125375-.94650877zm2.8777897 3.37560086c-.9899142 0-1.7555079.35508059-2.2848298 1.06532901l-.1098054.15763236-.516309.86534335-.5162017-.86534335c-.5310086-.81534335-1.3341202-1.22296137-2.39463522-1.22296137-.9166309 0-1.65504292.3222103-2.21888412.95075107-.50121602.57616238-.77171629 1.33805138-.813319 2.28450999l-.00567242.26270031v5.23100857h2.0724249v-5.0772532c0-1.07027897.45032189-1.61351932 1.35107296-1.61351932.9435058 0 1.4412433.57837196 1.4910232 1.72270849l.0041485.19596104v2.77907729h2.0601931v-2.77907729c0-1.27424893.4991416-1.91866953 1.4950644-1.91866953.8477657 0 1.2965353.48120944 1.3463983 1.43012084l.0046746.18339848v5.0772532h2.0724249v-5.23100857c0-1.06909871-.2722103-1.91866953-.8188841-2.5472103-.5639485-.62854077-1.3023605-.95075107-2.2188841-.95075107z" fill="#3088d4"/></svg>