<svg viewBox="0 0 24 24" xmlns="http://www.w3.org/2000/svg"><path d="m18.7059121 2.70591205 2.5881758 2.5881759c.3898645.38986446.3871982 1.02462595-.0075972 1.41942137l-13.2864907 13.28649068-5.04928216 1.6830941c-.52506697.1750223-.80688277-.1145993-.63381189-.6338119l1.68309405-5.0492822 13.2864907-13.28649068c.3940603-.39406032 1.0273826-.39963603 1.4194214-.00759727zm-13.84211938 13.86498745-.57372426 1.7211728 1.41910652 1.4174435 1.71992552-.5733085zm11.63620728-8.36379272-9.29289322 9.29289322.93933983.9393398 9.29289319-9.29289319zm-1.6464466-1.64644661-9.29289323 9.29289323.93933983.9393398 9.2928932-9.2928932zm3.1454965-3.14572946-2.4383897 2.43862268 2.5857864 2.58578644 2.4380827-2.43838714z" fill-rule="evenodd"/></svg>