<svg viewBox="0 0 24 24" xmlns="http://www.w3.org/2000/svg"><path d="m22 19c0 .5522847-.4477153 1-1 1h-18c-.55228475 0-1-.4477153-1-1v-13.85714286c0-.63118257.44771525-1.14285714 1-1.14285714h18c.5522847 0 1 .51167457 1 1.14285714zm-6-8.585-6 5.9992136-3-3-4 3.9997864v1.586h18v-3.585zm5-5.415h-18v11l3.29289322-3.2928932c.39052429-.3905243 1.02368927-.3905243 1.41421356 0l2.29289322 2.2928932 5.2928932-5.29289322c.3905243-.39052429 1.0236893-.39052429 1.4142136 0l4.2928932 4.29289322zm-13 2c1.1045695 0 2 .8954305 2 2s-.8954305 2-2 2-2-.8954305-2-2 .8954305-2 2-2zm0 1c-.55228475 0-1 .44771525-1 1s.44771525 1 1 1 1-.44771525 1-1-.44771525-1-1-1z"/></svg>