<svg viewBox="0 0 24 24" xmlns="http://www.w3.org/2000/svg"><path d="m10.5 7.54031242c.1135357 0 .223691.03864038.3123475.1095656l8.0746095 6.45968758c.215631.1725048.2505916.487151.0780869.7027819-.0948861.1186076-.2385426.1876525-.3904344.1876525l-4.0166095-.001 2.8892136 5.7773932c.1234946.2469893.0233824.5473258-.2236068.6708204-.219546.109773-.4812429.042869-.6234216-.1468222l-.0473988-.0767846-2.9257864-5.8516068-2.7734466 2.7744466c-.1952622.1952622-.5118446.1952622-.7071068 0-.0937682-.0937682-.1464466-.2209451-.1464466-.3535534v-9.75258078c0-.27614237.2238576-.5.5-.5zm.5 1.53968758v7.505l2.5857864-2.585h3.5632136zm-2.26776695.18776695c.19526214.19526215.19526214.51184464 0 .70710678l-1.41421357 1.41421357c-.19526214.1952621-.51184463.1952621-.70710678 0-.19526214-.1952621-.19526214-.5118446 0-.7071068l1.41421357-1.41421355c.19526214-.19526214.51184463-.19526214.70710678 0zm-1.23223305-2.26776695c.27614237 0 .5.22385763.5.5s-.22385763.5-.5.5h-2c-.27614237 0-.5-.22385763-.5-.5s.22385763-.5.5-.5zm8 0c.2761424 0 .5.22385763.5.5s-.2238576.5-.5.5h-2c-.2761424 0-.5-.22385763-.5-.5s.2238576-.5.5-.5zm-1.1109127-3.3890873c.1952621.19526215.1952621.51184464 0 .70710678l-1.4142136 1.41421357c-.1952621.19526214-.5118446.19526214-.7071067 0-.1952622-.19526215-.1952622-.51184464 0-.70710678l1.4142135-1.41421357c.1952622-.19526214.5118447-.19526214.7071068 0zm-7.07106782 0 1.41421357 1.41421357c.19526214.19526214.19526214.51184463 0 .70710678-.19526215.19526214-.51184464.19526214-.70710678 0l-1.41421357-1.41421357c-.19526214-.19526214-.19526214-.51184463 0-.70710678.19526215-.19526214.51184464-.19526214.70710678 0zm3.18198052-1.6109127c.2761424 0 .5.22385763.5.5v2c0 .27614237-.2238576.5-.5.5s-.5-.22385763-.5-.5v-2c0-.27614237.2238576-.5.5-.5z"/></svg>