<svg viewBox="0 0 24 24" xmlns="http://www.w3.org/2000/svg"><path d="m20.75 3c.1380712 0 .25.11192881.25.25v4.25c0 .27614237-.2238576.5-.5.5s-.5-.22385763-.5-.5v-2.794l-15.294 15.294h2.794c.27614237 0 .5.2238576.5.5s-.22385763.5-.5.5h-4.25c-.13807119 0-.25-.1119288-.25-.25v-4.25c0-.2761424.22385763-.5.5-.5s.5.2238576.5.5v2.792l15.292-15.292h-2.792c-.2761424 0-.5-.22385763-.5-.5s.2238576-.5.5-.5zm-7.75 10.121v6.879c0 .5522847-.4477153 1-1 1h-3v-1h3v-5.879zm4-3.999v10.878c0 .5522847-.4477153 1-1 1h-2v-1h2v-9.878zm4-.122v11c0 .5522847-.4477153 1-1 1h-2v-1h2v-11zm-10.121 2-1 1h-5.879v3h-1v-3c0-.5522847.44771525-1 1-1zm3.999-4-1 1h-9.878v2h-1v-2c0-.55228475.44771525-1 1-1zm.122-4v1h-11v2h-1v-2c0-.55228475.44771525-1 1-1z"/></svg>