<svg viewBox="0 0 24 24" xmlns="http://www.w3.org/2000/svg"><path d="m6.69432355 17.3881033c.19526215.1952621.19526215.5118446 0 .7071068l-3.12132034 3.1213203c-.19526214.1952622-.51184463.1952622-.70710678 0-.19526215-.1952621-.19526215-.5118446 0-.7071068l3.12132034-3.1213203c.19526215-.1952621.51184464-.1952621.70710678 0zm-1.41421356-1.4142136c.19526215.1952622.19526215.5118447 0 .7071068l-2.41421356 2.4142136c-.19526215.1952621-.51184464.1952621-.70710678 0-.19526215-.1952622-.19526215-.5118447 0-.7071068l2.41421356-2.4142136c.19526215-.1952621.51184464-.1952621.70710678 0zm2.82842713 2.8284272c.19526214.1952621.19526214.5118446 0 .7071067l-2.41421357 2.4142136c-.19526214.1952621-.51184463.1952621-.70710678 0-.19526214-.1952621-.19526214-.5118446 0-.7071068l2.41421357-2.4142135c.19526214-.1952622.51184463-.1952622.70710678 0zm14.02451028-16.85418783.0625745.27667296.0526066.27181018.0348954.21303983c.4090952 2.68337842-.2973542 5.80702181-2.0131637 8.73395786l.4918477 1.477899c.479113 1.4373389.1050231 3.022009-.966306 4.0933382l-3.4717742 3.4717741c-.3905243.3905243-1.0236892.3905243-1.4142135 0-.1097749-.1097749-.1924837-.2436006-.2415765-.390879l-.7165596-2.1475015c-1.1682839.7341848-2.3739881 1.3059119-3.5756234 1.7082666l-5.94924511-5.9490156c.40228447-1.2024121.97394357-2.4084003 1.70803769-3.576734l-2.14786259-.7162685c-.52394332-.17464778-.80710331-.74096775-.63245553-1.26491107.04909281-.14727843.13180165-.28110415.24157651-.39087901l3.47177413-3.47177413c1.07132916-1.07132916 2.65599929-1.44541904 4.0933382-.96630607l1.4773367.4921725c2.8327124-1.66072256 5.8496841-2.37601073 8.4734128-2.04961415l.2283552.03170384.2427174.03893167.2242659.04229799c.1091188.02194464.2180154.04600438.3260414.0720183zm-9.5658276 15.65594023-6.08935165-6.0880724c-.35123902.6393446-.6508494 1.285478-.89789886 1.9308206l5.05543571 5.0555632c.6456851-.2471262 1.2921526-.5468758 1.9318148-.8983114zm4.7337055-2.3372863c-.7903409.7903408-1.625205 1.4928946-2.4870014 2.1047296l.8026971 2.4080018 3.4717741-3.4717741c.7562323-.7562324 1.0492469-1.8535079.7815228-2.8787215l-.0567933-.1912822-.2346652-.705582c-.6512532.9495594-1.4117162 1.8688105-2.2775341 2.7346284zm-5.751069-10.76253237-.7051661-.23494841c-1.01459214-.33819739-2.12706526-.10956106-2.92431431.58838813l-.14568931.13634142-3.47177413 3.47177413 2.40784533.80303573c.61186256-.86198195 1.31447277-1.6969267 2.10488612-2.48734005.74202193-.74202193 1.5232895-1.40666274 2.3292448-1.99149612zm8.9863768 4.09817454-5.056319-5.05617009c-2.0599095.78873568-4.1277704 2.11296029-5.95716342 3.94235328-.98944137.98944137-1.83110729 2.04864108-2.52020127 3.13860204l6.45259519 6.4526841c1.0899963-.689082 2.1492154-1.5307599 3.1386739-2.5202183 1.8294371-1.8294371 3.1536814-3.8973536 3.9424146-5.95725103zm-3.9424146-1.11381681c1.1715729 1.17157287 1.1715729 3.07106784 0 4.24264064-1.1715729 1.1715729-3.0710678 1.1715729-4.2426407 0-1.1715729-1.1715728-1.1715729-3.07106777 0-4.24264064 1.1715729-1.17157288 3.0710678-1.17157288 4.2426407 0zm-.7071068.70710678c-.7810486-.78104858-2.0473785-.78104858-2.8284271 0s-.7810486 2.04737856 0 2.82842716c.7810486.7810485 2.0473785.7810485 2.8284271 0 .7810486-.7810486.7810486-2.04737858 0-2.82842716zm5.3964726-5.39723117-.2384131-.03424234c-1.3997255-.18445638-2.9393151-.03859245-4.5082878.42399773l4.3576826 4.35789872c.4891728-1.65900416.6242025-3.28510904.3890183-4.74765411z"/></svg>