<svg viewBox="0 0 24 24" xmlns="http://www.w3.org/2000/svg"><path d="m11.5 9.5c.2454599 0 .4496084.17687516.4919443.41012437l.0080557.08987563c0 2.6887547 2.1223067 4.8818181 4.7831104 4.9953805l.2168896.0046195c.2761424 0 .5.2238576.5.5 0 .2454599-.1768752.4496084-.4101244.4919443l-.0898756.0080557c-2.6887547 0-4.8818181 2.1223067-4.9953805 4.7831104l-.0046195.2168896c0 .2761424-.2238576.5-.5.5-.2454599 0-.4496084-.1768752-.4919443-.4101244l-.0080557-.0898756c0-2.7614237-2.23857625-5-5-5l-.08987563-.0080557c-.23324921-.0423359-.41012437-.2464844-.41012437-.4919443s.17687516-.4496084.41012437-.4919443l.08987563-.0080557c2.76142375 0 5-2.2385763 5-5l.0080557-.08987563c.0423359-.23324921.2464844-.41012437.4919443-.41012437zm-.000808 2.8998618c-.6036145 1.3840372-1.7149557 2.4958593-3.09878558 3.1006787 1.38389938.6038016 2.49525148 1.7151537 3.09996318 3.0985947.604083-1.3835515 1.7153933-2.4948231 3.0987656-3.0995048-1.383566-.6039093-2.4952733-1.7157314-3.0999432-3.0997686zm5.000808-9.8998618c.2761424 0 .5.22385763.5.5 0 .00275798-.0000223.00551074-.0000668.00825811.0000668 2.13418753 1.6840352 3.88282835 3.8004265 3.98684681l.1996403.00489508c.2761424 0 .5.22385763.5.5 0 .24545989-.1768752.44960837-.4101244.49194433l-.0898756.00805567c-2.2064613 0-3.9956579 1.78652215-4 3.9919686 0 .2841738-.2238576.5080314-.5.5080314-.2454599 0-.4496084-.1768752-.4919443-.4101244l-.0080557-.0898756c0-2.209139-1.790861-4-4-4l-.0898756-.00805567c-.2332492-.04233596-.4101244-.24648444-.4101244-.49194433s.1768752-.44960837.4101244-.49194433l.0898756-.00805567c2.209139 0 4-1.790861 4-4 0-.27614237.2238576-.5.5-.5zm-10 0c.24545989 0 .44960837.17687516.49194433.41012437l.00805567.08987563c0 1.59768088 1.24891996 2.90366088 2.82372721 2.99490731l.17627279.00509269c.2761424 0 .5.22385763.5.5 0 .24545989-.1768752.44960837-.4101244.49194433l-.0898756.00805567c-1.59768088 0-2.90366088 1.24891996-2.99490731 2.82372721l-.00509269.17627279c0 .2761424-.22385763.5-.5.5-.24545989 0-.44960837-.1768752-.49194433-.4101244l-.00805567-.0898756c0-1.65685425-1.34314575-3-3-3l-.08987563-.00805567c-.23324921-.04233596-.41012437-.24648444-.41012437-.49194433s.17687516-.44960837.41012437-.49194433l.08987563-.00805567c1.65685425 0 3-1.34314575 3-3l.00805567-.08987563c.04233596-.23324921.24648444-.41012437.49194433-.41012437zm9.9992146 2.68044511c-.489084 1.00963838-1.3084643 1.82957298-2.3178238 2.31983417 1.009578.48967601 1.8293525 1.30962083 2.3193946 2.31927561.4888233-1.01000676 1.3084625-1.82970483 2.3177761-2.31985805-1.0095569-.48967875-1.8293127-1.30961335-2.3193469-2.31925173zm-10.00061942-.24497535c-.36258893.65725896-.90566616 1.20117152-1.56249386 1.56542743.65715118.36232317 1.20067832.90585031 1.56474921 1.56263279.36206619-.65647883.90571351-1.20020793 1.56267945-1.56438051-.65689097-.36232968-1.20078611-.9063129-1.5649348-1.56367971z"/></svg>