<svg viewBox="0 0 24 24" xmlns="http://www.w3.org/2000/svg"><path d="m12.4061385 4.08618845 9 4c.7918153.35191795.7918153 1.47570515 0 1.8276231l-1.3201385.58618845 1.3201385.5861885c.7918153.3519179.7918153 1.4757051 0 1.827623l-1.3201385.5861885 1.3201385.5861885c.7918153.3519179.7918153 1.4757051 0 1.827623l-9 4c-.2585654.114918-.5537116.114918-.812277 0l-8.99999997-4c-.79181537-.3519179-.79181537-1.4757051 0-1.827623l1.31913847-.5861885-1.31913847-.5861885c-.79181537-.3519179-.79181537-1.4757051 0-1.827623l1.31913847-.5861885-1.31913847-.58618845c-.79181537-.35191795-.79181537-1.47570515 0-1.8276231l8.99999997-4c.2585654-.11491793.5537116-.11491793.812277 0zm6.4488615 9.96081155-6.4488615 2.8668115c-.2585654.114918-.5537116.114918-.812277 0l-6.4498615-2.8668115-2.144.953 9 4 9-4zm0-3-6.4488615 2.8668115c-.2585654.114918-.5537116.114918-.812277 0l-6.4498615-2.8668115-2.144.953 9 4 9-4zm-6.855-6.047-9 4 9 4 9-4z"/></svg>