<svg xmlns="http://www.w3.org/2000/svg" viewBox="0 0 24 24">
  <path fill-rule="evenodd" d="M3.05263158,4 L20.9473684,4 C21.5287208,4 22,4.39796911 22,4.88888889 L22,19.1111111 C22,19.6020309 21.5287208,20 20.9473684,20 L3.05263158,20 C2.47127921,20 2,19.6020309 2,19.1111111 L2,4.88888889 C2,4.39796911 2.47127921,4 3.05263158,4 Z M3,8 L3,19 L21,19 L21,8 L3,8 Z M10,5 C10.5522847,5 11,5.44771525 11,6 C11,6.55228475 10.5522847,7 10,7 C9.44771525,7 9,6.55228475 9,6 C9,5.44771525 9.44771525,5 10,5 Z M7,5 C7.55228475,5 8,5.44771525 8,6 C8,6.55228475 7.55228475,7 7,7 C6.44771525,7 6,6.55228475 6,6 C6,5.44771525 6.44771525,5 7,5 Z M4,5 C4.55228475,5 5,5.44771525 5,6 C5,6.55228475 4.55228475,7 4,7 C3.44771525,7 3,6.55228475 3,6 C3,5.44771525 3.44771525,5 4,5 Z"/>
</svg>
