<svg viewBox="0 0 24 24" xmlns="http://www.w3.org/2000/svg"><path d="m18 0c3.3137085 0 6 2.6862915 6 6v12c0 3.3137085-2.6862915 6-6 6h-12c-3.3137085 0-6-2.6862915-6-6v-12c0-3.3137085 2.6862915-6 6-6zm-1 7c-.5128358 0-.9355072.38604019-.9932723.88337887l-.0067277.11662113v8c0 .5522847.4477153 1 1 1 .5128358 0 .9355072-.3860402.9932723-.8833789l.0067277-.1166211v-8c0-.55228475-.4477153-1-1-1zm-4 0c-.5128358 0-.9355072.38604019-.9932723.88337887l-.0067277.11662113v5c0 1.1045695-.8954305 2-2 2-1.0543618 0-1.91816512-.8158778-1.99451426-1.8507377l-.00548574-.1492623v-5c0-.55228475-.44771525-1-1-1-.51283584 0-.93550716.38604019-.99327227.88337887l-.00672773.11662113v5c0 2.209139 1.790861 4 4 4 2.1421954 0 3.8910789-1.6839685 3.9951047-3.8003597l.0048953-.1996403v-5c0-.55228475-.4477153-1-1-1z" fill-rule="evenodd"/></svg>