<svg viewBox="0 0 24 24" xmlns="http://www.w3.org/2000/svg"><path d="m12.3522287 4.9553651c1.3401733.00735916 6.1262731.05887333 7.4631783.41947246.8606033.23148672 1.5382446.91356001 1.768254 1.77973173.3622421 1.36052523.410541 4.00217401.4169809 4.68242651l.0009753.1521511.0000154.0107338s0 .0036393-.0000154.0107334l-.0009753.1521465c-.0064399.6802333-.0547388 3.3218229-.4169809 4.6825451-.2300094.8660581-.9076507 1.5481314-1.768254 1.7797318-1.4111777.3805296-6.6654395.4167705-7.6534515.420222h-.3214621c-.988012-.0034515-6.24227379-.0396924-7.65345152-.420222-.86048967-.2316004-1.5382446-.9136737-1.76825399-1.7797318-.36224206-1.3607222-.410541-4.0023118-.41698086-4.6825451v-.3257648c.00643986-.6802525.0547388-3.32190128.41698086-4.68242651.23000939-.86617172.90776432-1.54824501 1.76825399-1.77973173 1.33690522-.36059913 6.12300502-.4121133 7.46317832-.41947246zm-2.39654228 4.07064421v5.94774279l5.22748608-2.9737578z" fill="#eb3323"/></svg>