<svg xmlns="http://www.w3.org/2000/svg" viewBox="0 0 16 16">
  <path d="M6.5,6 C6.74545989,6 6.94960837,6.17687516 6.99194433,6.41012437 L7,6.5 C7,8.3685634 8.4642776,9.89512645 10.3079648,9.99482114 L10.5,10 C10.7761424,10 11,10.2238576 11,10.5 C11,10.7454599 10.8231248,10.9496084 10.5898756,10.9919443 L10.5,11 C8.6314366,11 7.10487355,12.4642776 7.00517886,14.3079648 L7,14.5 C7,14.7761424 6.77614237,15 6.5,15 C6.25454011,15 6.05039163,14.8231248 6.00805567,14.5898756 L6,14.5 C6,12.5670034 4.43299662,11 2.5,11 L2.41012437,10.9919443 C2.17687516,10.9496084 2,10.7454599 2,10.5 C2,10.2545401 2.17687516,10.0503916 2.41012437,10.0080557 L2.5,10 C4.43299662,10 6,8.43299662 6,6.5 L6.00805567,6.41012437 C6.05039163,6.17687516 6.25454011,6 6.5,6 Z M11.5,2 C11.7454599,2 11.9496084,2.17687516 11.9919443,2.41012437 L12,2.5 C12,3.8254834 13.0315359,4.91003867 14.3356243,4.99468232 L14.5,5 C14.7761424,5 15,5.22385763 15,5.5 C15,5.74545989 14.8231248,5.94960837 14.5898756,5.99194433 L14.5,6 C13.1745166,6 12.0899613,7.03153594 12.0053177,8.33562431 L12,8.5 C12,8.77614237 11.7761424,9 11.5,9 C11.2545401,9 11.0503916,8.82312484 11.0080557,8.58987563 L11,8.5 C11,7.11928813 9.88071187,6 8.5,6 L8.41012437,5.99194433 C8.17687516,5.94960837 8,5.74545989 8,5.5 C8,5.25454011 8.17687516,5.05039163 8.41012437,5.00805567 L8.5,5 C9.88071187,5 11,3.88071187 11,2.5 L11.0080557,2.41012437 C11.0503916,2.17687516 11.2545401,2 11.5,2 Z M4.5,1 C4.74545989,1 4.94960837,1.17687516 4.99194433,1.41012437 L5,1.5 C5,2.27969612 5.59488808,2.92044868 6.35553999,2.99313342 L6.5,3 C6.77614237,3 7,3.22385763 7,3.5 C7,3.74545989 6.82312484,3.94960837 6.58987563,3.99194433 L6.5,4 C5.72030388,4 5.07955132,4.59488808 5.00686658,5.35553999 L5,5.5 C5,5.77614237 4.77614237,6 4.5,6 C4.25454011,6 4.05039163,5.82312484 4.00805567,5.58987563 L4,5.5 C4,4.67157288 3.32842712,4 2.5,4 L2.41012437,3.99194433 C2.17687516,3.94960837 2,3.74545989 2,3.5 C2,3.25454011 2.17687516,3.05039163 2.41012437,3.00805567 L2.5,3 C3.32842712,3 4,2.32842712 4,1.5 L4.00805567,1.41012437 C4.05039163,1.17687516 4.25454011,1 4.5,1 Z"/>
</svg>
