<svg height="24" viewBox="0 0 54 24" width="54" xmlns="http://www.w3.org/2000/svg" xmlns:xlink="http://www.w3.org/1999/xlink"><linearGradient id="a" x1="0%" x2="100%" y1="8.210678%" y2="91.789322%"><stop offset="0" stop-color="#f45a5a"/><stop offset="1" stop-color="#e13636"/></linearGradient><path d="m44.2091798 22c-.6164384 0-1.0273973-.0804469-1.4383562-.2011173l.5342466-2.252514c.1849315.0402235.4520548.1206704.6780822.1206704 1.0068493 0 1.5205479-.522905 1.7876712-1.3072626l.1438356-.522905-3.9246575-9.71396647h3.0410959l1.4589041 4.28379887c.2876712.9050279.5342466 1.8502793.8013698 2.8357542h.0821918c.2260274-.9452514.4520548-1.8905028.6986302-2.8357542l1.2328767-4.28379887h2.8972602l-3.5342465 10.07597767c-.9657535 2.5139665-2.0547946 3.8011173-4.4589041 3.8011173zm-4.4352072-3.6603352c-2.0753425 0-2.7739726-1.3273743-2.7739726-3.3385475v-11.0011173h3.0205479v11.1217877c0 .6234637.2876713.824581.5342466.824581.1232877 0 .2054795 0 .369863-.0402234l.369863 2.1921787c-.3287671.1407821-.8424657.2413408-1.5205479.2413408zm-29.93071241.6603352c-1.32445141 0-2.85266458-.5722071-3.87147336-1.4100817l1.34482759-1.880109c.9169279.6948229 1.7523511 1.0626703 2.60815047 1.0626703.89655171 0 1.28369901-.3269755 1.28369901-.8583107 0-.6743869-1.0188087-.9809264-2.05799368-1.3896457-1.22257053-.4700273-2.669279-1.3079019-2.669279-2.9836513 0-1.88010896 1.52821317-3.1675749 3.87147338-3.1675749 1.5485893 0 2.6896551.63351499 3.5658307 1.28746594l-1.3448276 1.79836516c-.7335423-.5313352-1.4263323-.8583107-2.1394984-.8583107-.77429469 0-1.14106585.2861036-1.14106585.7970028 0 .6539509.93730405.8991825 1.97648905 1.2874659 1.283699.4700273 2.7304075 1.1852861 2.7304075 3.0449591 0 1.8392371-1.4467085 3.2697548-4.15673981 3.2697548zm-8.79874613-.2452316v-10.13623979h2.9952978v10.13623979zm1.48746081-11.6280654c-.9984326 0-1.73197492-.65395096-1.73197492-1.57356949 0-.91961852.73354232-1.55313351 1.73197492-1.55313351 1.01880878 0 1.73197493.63351499 1.73197493 1.55313351 0 .91961853-.71316615 1.57356949-1.73197493 1.57356949z"/><path d="m25.4926689 6.58578644c-.0406793.23526802-.2457766.41421356-.4926689.41421356s-.4519896-.17894554-.4926689-.41421356h-.0072623c-.1944934-.51564583-.4992542-.99918539-.9142824-1.41421356-1.5620971-1.56209717-4.094757-1.56209717-5.6568542 0-1.5620972 1.56209716-1.5620972 4.09475708 0 5.65685422l7.0710678 7.0710678 7.0710678-7.0710678c1.5620972-1.56209714 1.5620972-4.09475706 0-5.65685422-1.5620972-1.56209717-4.0947571-1.56209717-5.6568542 0-.4150282.41502817-.719789.89856773-.9142824 1.41421356zm7.9926125 5.65685426-8.4852814 8.4852814-8.4852814-8.4852814c-2.3431457-2.34314576-2.3431457-6.14213564 0-8.48528139 2.3431458-2.34314575 6.1421356-2.34314575 8.4852814 0 2.3431458-2.34314575 6.1421356-2.34314575 8.4852814 0 2.3431457 2.34314575 2.3431457 6.14213563 0 8.48528139z" fill="url(#a)"/></svg>