<svg height="16" viewBox="0 0 16 16" width="16" xmlns="http://www.w3.org/2000/svg"><path d="m8.36074848 3.60786438c-.02978674.17227102-.17996578.30330086-.36074848.30330086s-.33096174-.13102984-.36074848-.30330086h-.00531768c-.14241448-.37757292-.3655704-.73163656-.66946775-1.03553391-1.14381916-1.14381917-2.99831645-1.14381917-4.14213562 0s-1.14381917 2.99831646 0 4.14213562l5.17766953 5.17766951 5.1776695-5.17766951c1.1438192-1.14381916 1.1438192-2.99831645 0-4.14213562-1.1438191-1.14381917-2.9983164-1.14381917-4.14213559 0-.30389735.30389735-.52705327.65796099-.66946775 1.03553391zm5.85245492 4.14213562-6.2132034 6.2132034-6.21320344-6.2132034c-1.71572875-1.71572875-1.71572875-4.49747468 0-6.21320344 1.71572876-1.71572875 4.49747469-1.71572875 6.21320344 0 1.71572875-1.71572875 4.4974747-1.71572875 6.2132034 0 1.7157288 1.71572876 1.7157288 4.49747469 0 6.21320344z"/></svg>