<svg xmlns="http://www.w3.org/2000/svg" viewBox="0 0 48 48">
  <g fill="none" transform="translate(4 7)">
    <path fill="#FCB400" d="M17.8680203,0.568527919 L3.08629442,6.68020305 C2.25380711,7.02538071 2.27411168,8.18274112 3.10659898,8.52791878 L17.9695431,14.4162437 C19.2690355,14.9441624 20.7309645,14.9441624 22.0304569,14.4162437 L36.893401,8.52791878 C37.7258883,8.20304569 37.7258883,7.02538071 36.9137056,6.68020305 L22.0913706,0.568527919 C20.751269,4.16333634e-16 19.2284264,4.16333634e-16 17.8680203,0.568527919"/>
    <path fill="#18BFFF" d="M21.2994924,17.6446701 L21.2994924,32.3654822 C21.2994924,33.0558376 22.0101523,33.5431472 22.6598985,33.2791878 L39.2284264,26.8426396 C39.6142132,26.7005076 39.857868,26.3350254 39.857868,25.928934 L39.857868,11.2081218 C39.857868,10.5177665 39.1472081,10.0304569 38.4974619,10.2944162 L21.928934,16.7106599 C21.5431472,16.8730964 21.2994924,17.2385787 21.2994924,17.6446701"/>
    <path fill="#F82B60" d="M17.4416244,18.3959391 L12.5279188,20.7715736 L12.0203046,21.0152284 L1.64467005,25.9898477 C0.994923858,26.3147208 0.14213198,25.8274112 0.14213198,25.0964467 L0.14213198,11.2690355 C0.14213198,11.0050761 0.284263959,10.7817259 0.467005076,10.5989848 C0.54822335,10.5177665 0.629441624,10.4568528 0.710659898,10.4162437 C0.954314721,10.2741117 1.31979695,10.2335025 1.60406091,10.3553299 L17.3401015,16.5888325 C18.1522843,16.893401 18.213198,18.0304569 17.4416244,18.3959391"/>
    <path fill="#BA1E45" d="M17.4416244,18.3959391 L12.5279188,20.7715736 L0.467005076,10.6192893 C0.54822335,10.5380711 0.629441624,10.4771574 0.710659898,10.4365482 C0.954314721,10.2944162 1.31979695,10.2538071 1.60406091,10.3756345 L17.3401015,16.6091371 C18.1522843,16.893401 18.213198,18.0304569 17.4416244,18.3959391"/>
  </g>
</svg>
