<svg xmlns="http://www.w3.org/2000/svg" viewBox="0 0 48 48">
  <g fill="none" transform="translate(6.104 4)">
    <path fill="#FFD75F" d="M11.8,27.75 L11.8,27.75 C9.8,25.75 8.6,23.05 8.6,20 C8.6,17 9.85,14.25 11.8,12.25 L11.8,12.25 C13.5,10.55 13.5,7.85 11.8,6.15 C10.1,4.45 7.4,4.45 5.7,6.15 C2.2,9.7 0,14.6 0,20 C0,25.4 2.2,30.3 5.75,33.8 C7.45,35.5 10.15,35.5 11.85,33.8 C13.5,32.15 13.5,29.45 11.8,27.75 L11.8,27.75 Z"/>
    <path fill="#3AB2E6" d="M11.8,12.25 L11.8,12.25 C13.8,10.25 16.5,9.05 19.55,9.05 C22.55,9.05 25.3,10.3 27.3,12.25 L27.3,12.25 C29,13.95 31.7,13.95 33.4,12.25 C35.1,10.55 35.1,7.85 33.4,6.15 C29.85,2.6 25,0.4 19.6,0.4 C14.2,0.4 9.3,2.6 5.8,6.15 C4.1,7.85 4.1,10.55 5.8,12.25 C7.4,13.95 10.1,13.95 11.8,12.25 L11.8,12.25 Z"/>
    <path fill="#EC5C68" d="M27.3,27.75 L27.3,27.75 C25.3,29.75 22.6,30.95 19.55,30.95 C16.55,30.95 13.8,29.7 11.8,27.75 L11.8,27.75 C10.1,26.05 7.4,26.05 5.7,27.75 C4,29.45 4,32.15 5.7,33.85 C9.25,37.4 14.1,39.6 19.5,39.6 C24.9,39.6 29.8,37.4 33.3,33.85 C35,32.15 35,29.45 33.3,27.75 C31.7,26.05 28.95,26.05 27.3,27.75 C27.3,27.75 27.3,27.75 27.3,27.75 Z"/>
    <circle cx="8.769" cy="9.252" r="4.3" fill="#2F8AC4" transform="rotate(-45.016 8.77 9.251)"/>
    <circle cx="8.762" cy="30.804" r="4.3" fill="#D4455F" transform="rotate(-45.016 8.762 30.804)"/>
  </g>
</svg>
