<svg xmlns="http://www.w3.org/2000/svg" viewBox="0 0 48 48">
  <path fill="#FB6970" d="M19.2372093,29.375814 C26.1604651,29.375814 31.5116279,24.1148837 31.5116279,17.6255814 C31.5116279,11.545814 26.4844186,7.83348837 23.1546512,7.83348837 C18.5162791,7.83348837 14.7988372,11.1088372 14.2713953,15.9702326 C14.174186,16.8669767 13.4630233,17.6190698 12.5609302,17.6123256 C11.0672093,17.6016279 8.89906977,17.5890698 7.52418605,17.5937209 C6.93,17.5955814 6.43837209,17.1134884 6.46767442,16.5197674 C6.67465116,12.3051163 8.0755814,8.36395349 10.7472093,5.33674419 C13.7153488,1.97395349 18.0374419,0 23.1546512,0 C31.752093,0 39.8683721,7.8572093 39.8683721,17.6255814 C39.8683721,28.4413953 30.9586047,37.2093023 19.4202326,37.2093023 C11.1913953,37.2093023 2.90372093,31.8004651 0.01,24.2383721 C-1.81850693e-05,24.2103358 -0.00271538779,24.1800104 0.00302325581,24.1506977 C0.0413953488,23.9269767 0.117906977,23.7225581 0.193255814,23.5211628 C0.302790698,23.2286047 0.409767442,22.9425581 0.394186047,22.6127907 L0.344186047,21.5595349 C0.319786777,21.0393567 0.61188483,20.5559252 1.08372093,20.3355814 L1.50186047,20.1397674 C1.97839737,19.9169574 2.31746265,19.4770913 2.41162791,18.9595349 C2.55293191,18.1862272 3.22714459,17.6246933 4.01325581,17.6255814 C5.24162791,17.6255814 6.30976744,18.4430233 6.70860465,19.6051163 C8.64046512,25.235814 11.7111628,29.375814 19.2372093,29.375814 Z" transform="translate(4 5)"/>
</svg>
