<svg xmlns="http://www.w3.org/2000/svg" viewBox="0 0 48 48">
  <g fill="#0080FF" fill-rule="evenodd" transform="translate(4 4)">
    <path d="M19.93224,40 L19.93224,32.2712 C28.11304,32.2712 34.46328,24.15816 31.322,15.548 C30.16952,12.3616 27.61584,9.80792 24.42936,8.65536 C15.8192,5.5368 7.70616,11.8644 7.70616,20.0452 L0,20.0452 C0,7.00568 12.61016,-3.16384 26.28248,1.10736 C32.24856,2.98304 37.01688,7.7288 38.87008,13.69488 C43.14128,27.38984 32.99432,40 19.93224,40"/>
    <path d="M12.2712,32.29376 L19.9548,32.29376 L19.9548,24.61016 L12.2712,24.61016 L12.2712,32.29376 Z M6.35032,38.21472 L12.27112,38.21472 L12.27112,32.29376 L6.3504,32.29376 L6.35032,38.21472 Z M1.40112,32.29376 L6.3504,32.29376 L6.3504,27.34464 L1.40112,27.34464 L1.40112,32.29376 Z"/>
  </g>
</svg>
