<svg xmlns="http://www.w3.org/2000/svg" viewBox="0 0 48 48">
  <g fill="none" transform="translate(11 4)">
    <path fill="#1ABCFE" d="M13.3333333,20 C13.3333333,16.3178947 16.3178947,13.3333333 20,13.3333333 C23.6821053,13.3333333 26.6666667,16.3178947 26.6666667,20 C26.6666667,23.6821053 23.6821053,26.6666667 20,26.6666667 C16.3178947,26.6666667 13.3333333,23.6821053 13.3333333,20 Z"/>
    <path fill="#0ACF83" d="M0,33.3333333 C0,29.6512281 2.9845614,26.6666667 6.66666667,26.6666667 L13.3333333,26.6666667 L13.3333333,33.3333333 C13.3333333,37.0154386 10.3487719,40 6.66666667,40 C2.9845614,40 0,37.0154386 0,33.3333333 Z"/>
    <path fill="#FF7262" d="M13.3333333,0 L13.3333333,13.3333333 L20,13.3333333 C23.6821053,13.3333333 26.6666667,10.3487719 26.6666667,6.66666667 C26.6666667,2.9845614 23.6821053,0 20,0 L13.3333333,0 Z"/>
    <path fill="#F24E1E" d="M0,6.66666667 C0,10.3487719 2.9845614,13.3333333 6.66666667,13.3333333 L13.3333333,13.3333333 L13.3333333,0 L6.66666667,0 C2.9845614,0 0,2.9845614 0,6.66666667 Z"/>
    <path fill="#A259FF" d="M0,20 C0,23.6821053 2.9845614,26.6666667 6.66666667,26.6666667 L13.3333333,26.6666667 L13.3333333,13.3333333 L6.66666667,13.3333333 C2.9845614,13.3333333 0,16.3178947 0,20 Z"/>
  </g>
</svg>
