<svg xmlns="http://www.w3.org/2000/svg" viewBox="0 0 48 48">
  <g fill="none" transform="translate(4 4)">
    <circle cx="20" cy="20" r="20" fill="#639"/>
    <path fill="#FFF" d="M8.85714286,31.1428571 C5.85714286,28.1428571 4.28571429,24.1428571 4.28571429,20.2857143 L19.8571429,35.7142857 C15.8571429,35.5714286 11.8571429,34.1428571 8.85714286,31.1428571 Z M23.4285714,35.2857143 L4.71428571,16.5714286 C6.28571429,9.57142857 12.5714286,4.28571429 20,4.28571429 C25.2857143,4.28571429 29.8571429,6.85714286 32.7142857,10.7142857 L30.5714286,12.5714286 C28.1428571,9.28571429 24.2857143,7.14285714 20,7.14285714 C14.4285714,7.14285714 9.71428571,10.7142857 7.85714286,15.7142857 L24.2857143,32.1428571 C28.4285714,30.7142857 31.5714286,27.1428571 32.5714286,22.8571429 L25.7142857,22.8571429 L25.7142857,20 L35.7142857,20 C35.7142857,27.4285714 30.4285714,33.7142857 23.4285714,35.2857143 Z"/>
  </g>
</svg>
