<svg xmlns="http://www.w3.org/2000/svg" viewBox="0 0 48 48">
  <path fill="#FFF" d="M43.2458606,22.2176662 L25.7804247,4.75437201 C24.7755082,3.74854266 23.1443008,3.74854266 22.1381203,4.75437201 L18.5116154,8.38122804 L23.1117187,12.9813314 C24.1811322,12.6202608 25.4068901,12.8623509 26.258938,13.7145672 C27.1154097,14.5720922 27.3557723,15.8083129 26.9856434,16.8813076 L31.4193256,21.3149899 C32.4919692,20.9453525 33.7295592,21.1841632 34.586066,22.0421868 C35.7835254,23.239295 35.7835254,25.1790837 34.586066,26.3765079 C33.3884311,27.5743184 31.4486424,27.5743184 30.2503404,26.3765079 C29.3499462,25.4754115 29.1272439,24.1524693 29.5832868,23.0431007 L25.4483901,18.908204 L25.448039,29.7891232 C25.7399781,29.9336427 26.0154857,30.1265296 26.2587624,30.368753 C27.4558707,31.5657209 27.4558707,33.5051584 26.2587624,34.7041275 C25.0613031,35.9010602 23.1206367,35.9010602 21.9244413,34.7041275 C20.7271575,33.5052637 20.7271575,31.5658262 21.9244413,30.368753 C22.2203302,30.0733907 22.5627047,29.8498282 22.9280236,29.699979 L22.9280236,18.7179433 C22.5625292,18.568726 22.2205584,18.3468313 21.9242306,18.049099 C21.017341,17.1429117 20.7989222,15.8118941 21.2640234,14.6982422 L16.7292246,10.1627411 L4.75463098,22.1369836 C3.74848564,23.1435854 3.74848564,24.7747928 4.75463098,25.7806924 L22.2190136,43.2440217 C23.2244918,44.2498511 24.8551376,44.2498511 25.8620202,43.2440217 L43.24565,25.8632007 C44.2514793,24.8568798 44.2514793,23.2251808 43.24565,22.2191408"/>
</svg>
