<svg xmlns="http://www.w3.org/2000/svg" viewBox="0 0 48 48">
  <path fill="#161514" fill-rule="evenodd" d="M23.9981583,4 C12.9554621,4 4,12.9542343 4,24.0006139 C4,32.8369809 9.73007152,40.3326069 17.6775223,42.9772553 C18.6781669,43.161423 19.042819,42.5438473 19.042819,42.0134442 C19.042819,41.5395193 19.02563,40.2810399 19.0158077,38.6124804 C13.4527149,39.8206206 12.2789527,35.9309985 12.2789527,35.9309985 C11.3691642,33.6203076 10.0578901,33.0051874 10.0578901,33.0051874 C8.24199638,31.7651248 10.1954019,31.7896805 10.1954019,31.7896805 C12.20283,31.9308757 13.2587249,33.8511311 13.2587249,33.8511311 C15.0426962,36.9070874 17.9402683,36.0243101 19.0796525,35.5123239 C19.2613647,34.2206943 19.7782621,33.3391448 20.349182,32.8394364 C15.9082845,32.3348169 11.239019,30.6183738 11.239019,22.9545413 C11.239019,20.7715399 12.0186623,18.9851131 13.2980141,17.587894 C13.0917462,17.0820467 12.4054145,15.0476074 13.4944596,12.2949139 C13.4944596,12.2949139 15.1728414,11.7571442 18.9937076,14.3453145 C20.5886,13.9008564 22.300132,13.6798551 24.0006139,13.6712606 C25.699868,13.6798551 27.4101722,13.9008564 29.0075202,14.3453145 C32.8259308,11.7571442 34.501857,12.2949139 34.501857,12.2949139 C35.5933577,15.0476074 34.907026,17.0820467 34.7019859,17.587894 C35.9837932,18.9851131 36.7572976,20.7715399 36.7572976,22.9545413 C36.7572976,30.6380184 32.0806655,32.328678 27.6262623,32.8234752 C28.3432886,33.441051 28.9829645,34.661469 28.9829645,36.5277019 C28.9829645,39.2005893 28.9584088,41.3578072 28.9584088,42.0134442 C28.9584088,42.5487584 29.3193775,43.1712453 30.3335277,42.9760275 C38.2748396,40.3252402 44,32.8345253 44,24.0006139 C44,12.9542343 35.0445379,4 23.9981583,4"/>
</svg>
