<svg xmlns="http://www.w3.org/2000/svg" viewBox="0 0 48 48">
  <defs>
    <linearGradient id="gumroad-a" x1="99.996%" x2="1.705%" y1="50.047%" y2="50.047%">
      <stop offset="0%" stop-color="#0D77BA"/>
      <stop offset="100%" stop-color="#3EB8BC"/>
    </linearGradient>
    <linearGradient id="gumroad-b" x1="49.859%" x2="49.859%" y1="98.597%" y2="2.856%">
      <stop offset="0%" stop-color="#0A968E"/>
      <stop offset="100%" stop-color="#3EB8BC"/>
    </linearGradient>
    <linearGradient id="gumroad-c" x1=".033%" x2="100.025%" y1="49.81%" y2="49.81%">
      <stop offset="0%" stop-color="#0A968E"/>
      <stop offset="100%" stop-color="#EB5B28"/>
    </linearGradient>
    <linearGradient id="gumroad-d" x1="50.051%" x2="50.051%" y1=".453%" y2="99.096%">
      <stop offset="0%" stop-color="#C22C2E"/>
      <stop offset="100%" stop-color="#EB5B28"/>
    </linearGradient>
    <linearGradient id="gumroad-e" x1="98.567%" x2="1.853%" y1="49.853%" y2="49.853%">
      <stop offset="0%" stop-color="#C22C2E"/>
      <stop offset="100%" stop-color="#CA4C30"/>
    </linearGradient>
    <linearGradient id="gumroad-f" x1="50.109%" x2="50.109%" y1="2.453%" y2="96.878%">
      <stop offset="0%" stop-color="#CA4C30"/>
      <stop offset="100%" stop-color="#E94E1B"/>
    </linearGradient>
    <linearGradient id="gumroad-g" x1=".015%" x2="100.075%" y1="50.01%" y2="50.01%">
      <stop offset="0%" stop-color="#E94E1B"/>
      <stop offset="100%" stop-color="#F8AE3B"/>
    </linearGradient>
  </defs>
  <g fill="none" transform="translate(5 4)">
    <path fill="url(#gumroad-a)" d="M34.5945946,0.12972973 C36.5621622,0.12972973 38.1405405,1.70810811 38.1405405,3.65405405 C38.1405405,5.6 36.5621622,7.17837838 34.6162162,7.17837838 C33.2540541,7.17837838 32.0648649,6.4 31.4810811,5.27567568 L31.4810811,5.27567568 L4.75675676,5.27567568 C4.67536336,5.27567568 4.59571088,5.28058189 4.51809721,5.29008288 L4.51935135,2.34075126 C4.59793873,2.33702151 4.67708862,2.33513514 4.75675676,2.33513514 L4.75675676,2.33513514 L31.3297297,2.33513514 C31.8486486,1.03783784 33.1243243,0.12972973 34.5945946,0.12972973 Z M34.5945946,1.96756757 C33.6648649,1.96756757 32.9081081,2.72432432 32.9081081,3.65405405 C32.9081081,4.58378378 33.6648649,5.34054054 34.5945946,5.34054054 C35.5243243,5.34054054 36.2810811,4.58378378 36.2810811,3.65405405 C36.2810811,2.72432432 35.5243243,1.96756757 34.5945946,1.96756757 Z"/>
    <path fill="#3EB8BC" d="M4.64785995,2.33700246 L4.648068,5.27862195 C3.75157524,5.3274908 3.09189189,5.97837838 3.09189189,6.78918919 L3.09189189,6.78918919 L3.09185995,6.96200246 L0.150859951,6.96200246 L0.151351351,6.78918919 C0.151351351,4.37374517 2.06930392,2.44799117 4.53757479,2.33991988 L4.64785995,2.33700246 Z"/>
    <path fill="url(#gumroad-b)" d="M3.09185995,6.85336609 L3.09189189,35.2216216 C3.09189189,35.2286899 3.09193905,35.235753 3.09203305,35.2428105 L0.151351351,35.2432432 L0.150859951,6.85336609 L3.09185995,6.85336609 Z"/>
    <path fill="#0A968E" d="M3.09185995,35.1133661 L3.09189189,35.2216216 C3.09189189,36.1297297 3.87027027,36.9513514 4.75675676,36.9513514 L4.64785995,36.9453661 L4.64836313,39.933765 C2.27776494,39.8738203 0.26765803,37.8549016 0.156218719,35.4531647 L0.151351351,35.2432432 L0.150859951,35.1133661 L3.09185995,35.1133661 Z"/>
    <path fill="url(#gumroad-c)" d="M4.51734751,36.9313955 C4.59591159,36.9445134 4.67588431,36.9513514 4.75675676,36.9513514 L4.75675676,36.9513514 L33.1891892,36.9513514 L33.1891892,36.9513514 L33.1891892,39.9351351 L4.75675676,39.9351351 C4.67679995,39.9351351 4.59722323,39.9328994 4.51808482,39.9284875 Z"/>
    <path fill="#EB5B28" d="M37.7294423,35.1133661 L37.7297297,35.2432432 C37.7297297,37.8378378 35.6972973,39.9351351 33.1891892,39.9351351 L33.1891892,39.9351351 L33.0804423,39.9343661 L33.0804423,36.9503661 L33.1891892,36.9513514 C34.0085349,36.9513514 34.7114472,36.2333458 34.7831683,35.3672452 L34.7891892,35.2216216 L34.7884423,35.1133661 L37.7294423,35.1133661 Z"/>
    <path fill="url(#gumroad-d)" d="M37.7281892,18.3560934 L37.7297297,18.3783784 L37.7291892,35.2210934 L34.7891892,35.2216216 L34.7891892,18.3567568 L34.7891892,18.3567568 L37.7281892,18.3560934 Z"/>
    <path fill="#C22C2E" d="M33.1891892,13.772973 C35.6972973,13.772973 37.7297297,15.8486486 37.7297297,18.3783784 L37.7297297,18.3783784 L37.7294423,18.486457 L34.7884423,18.486457 L34.7891892,18.3567568 C34.7891892,17.4759602 34.1488059,16.7698136 33.3276445,16.6979222 L33.1891892,16.6918919 L33.0804423,16.691457 L33.0804423,13.772457 Z"/>
    <path fill="url(#gumroad-e)" d="M33.1891892,13.772973 L33.1891892,16.6918919 L16.3243243,16.6918919 L16.3243243,16.6918919 L16.3243243,13.772973 L33.1891892,13.772973 L33.1891892,13.772973 Z"/>
    <path fill="#CA4C30" d="M16.4318059,13.772457 L16.4318059,16.691457 L16.3243243,16.6918919 C15.4435277,16.6918919 14.6209478,17.4098974 14.5368003,18.2208454 L14.5297297,18.3567568 L14.5288059,18.486457 L11.5668059,18.486457 L11.5675676,18.3783784 C11.5675676,15.960961 13.631715,13.8909743 16.1108493,13.7778403 L16.3243243,13.772973 L16.4318059,13.772457 Z"/>
    <path fill="url(#gumroad-f)" d="M14.5297297,18.3567568 L14.5288059,23.6534242 L11.5668059,23.6534242 L11.5675676,18.3783784 C11.5675676,18.371303 11.5675852,18.3642306 11.5676206,18.3571612 L14.5297297,18.3567568 Z"/>
    <path fill="#E94E1B" d="M14.5297297,23.6756757 C14.5297297,24.6054054 15.4594595,25.1891892 16.3243243,25.1891892 L16.3243243,25.1891892 L16.4318059,25.1891843 L16.4318059,28.1291843 L16.3243243,28.1297297 C13.7807808,28.1297297 11.6868535,26.2495162 11.5724868,23.8799475 L11.5675676,23.6756757 L11.5668059,23.5451843 L14.5288059,23.5451843 Z"/>
    <path fill="url(#gumroad-g)" d="M25.4702703,23.2864865 C27.4162162,23.2864865 28.9945946,24.8648649 28.9945946,26.8108108 C28.9945946,28.7567568 27.4162162,30.3351351 25.4702703,30.3351351 C24,30.3351351 22.7243243,29.427027 22.2054054,28.1297297 L22.2054054,28.1297297 L16.3243243,28.1297297 L16.3243243,28.1297297 L16.3243243,25.1891892 L22.3351351,25.1891892 C22.9189189,24.0648649 24.1081081,23.2864865 25.4702703,23.2864865 Z M25.4918919,25.1243243 C24.5621622,25.1243243 23.8054054,25.8594595 23.8054054,26.8108108 C23.8054054,27.7405405 24.5621622,28.4972973 25.4918919,28.4972973 C26.4216216,28.4972973 27.1783784,27.7405405 27.1783784,26.8108108 C27.1783784,25.8810811 26.4216216,25.1243243 25.4918919,25.1243243 Z"/>
  </g>
</svg>
