<svg xmlns="http://www.w3.org/2000/svg" viewBox="0 0 48 48">
  <g fill="none" transform="translate(4 4)">
    <polygon fill="#F7DF1E" points="0 0 40 0 40 40 0 40"/>
    <path fill="#000" d="M10.5173968 33.4269206L13.5785397 31.5744127C14.1690794 32.6214603 14.7062857 33.5073652 15.9948572 33.5073652 17.2300317 33.5073652 18.0087619 33.0241905 18.0087619 31.1448255L18.0087619 18.363873 21.7677461 18.363873 21.7677461 31.1979683C21.7677461 35.0913016 19.4855873 36.8634286 16.156 36.8634286 13.1489524 36.8634286 11.4034286 35.3060317 10.5173968 33.4266031M23.8095238 33.024127L26.8702222 31.252C27.6759366 32.5678095 28.7231111 33.5343492 30.5756825 33.5343492 32.1332064 33.5343492 33.1264127 32.7556191 33.1264127 31.6815873 33.1264127 30.3927619 32.1061587 29.9362539 30.3876825 29.1846984L29.4481905 28.7816508C26.736127 27.6273016 24.9370794 26.1773969 24.9370794 23.1163809 24.9370794 20.2970794 27.0850794 18.1489523 30.4415237 18.1489523 32.8312381 18.1489523 34.5496508 18.9813969 35.7846348 21.1563175L32.8579047 23.0357461C32.2134603 21.8812698 31.5155556 21.4248889 30.4415873 21.4248889 29.3406984 21.4248889 28.6425397 22.1229841 28.6425397 23.0357461 28.6425397 24.163492 29.3406984 24.6200634 30.9515556 25.3182222L31.8912381 25.7209523C35.0864762 27.0904127 36.8855237 28.4864763 36.8855237 31.627873 36.8855237 35.0112381 34.2273652 36.8637461 30.6563175 36.8637461 27.1657778 36.8637461 24.9102858 35.1991111 23.8095238 33.024127"/>
  </g>
</svg>
