<svg xmlns="http://www.w3.org/2000/svg" viewBox="0 0 48 48">
  <path fill="#C63D14" d="M29.4749422,23.688801 L32.626,23.7335018 L32.6293598,23.8747343 C32.7424361,26.5850688 34.9825203,28.7549607 37.720019,28.7549607 C38.7994855,28.7549607 39.8008357,28.4166646 40.6255686,27.8418413 C41.1982134,29.0140513 41.4115547,30.3330016 41.1834304,31.6468166 C40.8823251,33.3815567 39.8107948,34.8970423 38.2438022,35.8045598 C36.7830913,36.6506112 35.0326346,36.9031662 33.1793198,37.1703486 C32.1865281,37.3135098 31.1598134,37.4616505 30.1569071,37.7090703 C27.5050017,38.3629435 24.9363478,39.6387897 22.4523456,40.8726213 C17.4813846,43.3416849 13.1882608,45.4738529 9.14037834,42.6683605 C6.17523013,40.6133751 6.31216691,36.8110451 6.65762107,34.7274275 C6.97771081,32.7970856 7.84321353,31.0192416 8.68023963,29.2999069 C8.82511252,29.0023806 8.96578394,28.7109231 9.10381,28.4213329 C9.51897743,28.5873688 9.96044295,28.7004972 10.4205817,28.7518485 C9.56861702,31.5638765 10.9085746,34.6213015 13.7209138,36.0661401 L14.1057373,36.2639204 L14.5134354,36.1187363 C16.7367909,35.3269927 18.7853963,34.0562816 20.6026097,32.3419264 C21.7773095,31.2338277 22.7867515,30.0077767 23.6167751,28.6976963 C23.8657511,28.7351983 24.1204846,28.7549607 24.3797308,28.7549607 C27.1795521,28.7549607 29.459207,26.4851437 29.4749422,23.688801 Z M10.9888693,20.5941508 C12.6955996,20.5941508 14.0839519,21.9825031 14.0839519,23.6890777 C14.0839519,25.3956524 12.6955996,26.7841603 10.9888693,26.7841603 C9.28245026,26.7841603 7.89394238,25.3956524 7.89394238,23.6890777 C7.89394238,21.9825031 9.28245026,20.5941508 10.9888693,20.5941508 Z M37.720019,20.5647405 C39.4267493,20.5647405 40.8151016,21.9530928 40.8151016,23.6596675 C40.8151016,25.3662421 39.4267493,26.75475 37.720019,26.75475 C36.0136,26.75475 34.6250921,25.3662421 34.6250921,23.6596675 C34.6250921,21.9530928 36.0136,20.5647405 37.720019,20.5647405 Z M24.3797308,20.5647405 C26.0863055,20.5647405 27.4746578,21.9530928 27.4746578,23.6596675 C27.4746578,25.3662421 26.0863055,26.75475 24.3797308,26.75475 C22.6733118,26.75475 21.2848039,25.3662421 21.2848039,23.6596675 C21.2848039,21.9530928 22.6733118,20.5647405 24.3797308,20.5647405 Z M41.5190812,3.99850177 L36.5325593,18.7056681 C36.316417,18.7574862 36.1057211,18.8228424 35.901094,18.9014254 L30.9751043,8.85244395 L26.0347986,18.8419824 C25.8213017,18.7683789 25.6015804,18.7078466 25.3762572,18.6630309 L20.4068524,3.99850177 L41.5190812,3.99850177 Z"/>
</svg>
