<svg xmlns="http://www.w3.org/2000/svg" viewBox="0 0 48 48">
  <path d="M22.69,4.01093509 C22.6041667,4.01926842 22.3308333,4.04593509 22.0841667,4.06593509 C16.4025,4.57760176 11.0808333,7.64176842 7.71083333,12.3534351 C5.84753087,14.9394652 4.63625692,17.9372039 4.18,21.0917684 C4.01916667,22.1901018 4,22.5142684 4,24.0042684 C4,25.4934351 4.01916667,25.8184351 4.18,26.9167684 C5.26666667,34.4267684 10.6116667,40.7367684 17.8608333,43.0751018 C19.1591667,43.4926018 20.5275,43.7784351 22.0841667,43.9501018 C22.69,44.0167684 25.3091667,44.0167684 25.9158333,43.9501018 C28.6025,43.6534351 30.8775,42.9884351 33.1225,41.8426018 C33.4658333,41.6676018 33.5325,41.6201018 33.4858333,41.5809351 C33.4541667,41.5576018 31.9883333,39.5909351 30.2283333,37.2142684 L27.03,32.8942684 L23.0225,26.9634351 C20.8175,23.7026018 19.0025,21.0367684 18.9875,21.0367684 C18.9716667,21.0326018 18.9558333,23.6676018 18.9483333,26.8851018 C18.9366667,32.5184351 18.9325,32.7459351 18.8625,32.8784351 C18.7608333,33.0701018 18.6825,33.1484351 18.5183333,33.2342684 C18.3933333,33.2967684 18.2833333,33.3092684 17.6933333,33.3092684 L17.0166667,33.3092684 L16.8366667,33.1951018 C16.7254516,33.125302 16.6350692,33.02686 16.575,32.9101018 L16.4925,32.7342684 L16.5008333,24.8951018 L16.5125,17.0534351 L16.6333333,16.9001018 C16.6958333,16.8184351 16.8291667,16.7126018 16.9225,16.6617684 C17.0833333,16.5834351 17.1458333,16.5759351 17.8225,16.5759351 C18.62,16.5759351 18.7525,16.6076018 18.96,16.8342684 C19.0183333,16.8967684 21.1883333,20.1651018 23.785,24.1017684 C26.3816667,28.0384351 29.9316667,33.4142684 31.6758333,36.0534351 L34.8425,40.8501018 L35.0025,40.7442684 C36.4225,39.8217684 37.9233333,38.5084351 39.1125,37.1401018 C41.6327226,34.2562067 43.2675228,30.7065204 43.8208333,26.9167684 C43.9808333,25.8176018 44,25.4934351 44,24.0042684 C44,22.5142684 43.9808333,22.1901018 43.82,21.0917684 C42.7333333,13.5809351 37.3883333,7.27176842 30.1391667,4.93343509 C28.86,4.51926842 27.4991667,4.23343509 25.9741667,4.06176842 C25.5991667,4.02260176 23.015,3.97926842 22.6908333,4.01093509 L22.69,4.01093509 Z M30.8775,16.1067684 C31.0655043,16.201773 31.2077244,16.3679966 31.2725,16.5684351 C31.3041667,16.6701018 31.3116667,18.8434351 31.3041667,23.7417684 L31.2925,30.7717684 L30.0525,28.8717684 L28.8091667,26.9717684 L28.8091667,21.8617684 C28.8091667,18.5584351 28.825,16.7009351 28.8483333,16.6117684 C28.9046839,16.4012936 29.0446975,16.2230397 29.2358333,16.1184351 C29.3958333,16.0367684 29.4541667,16.0284351 30.0691667,16.0284351 C30.6475,16.0284351 30.7491667,16.0367684 30.8775,16.1067684 L30.8775,16.1067684 Z"/>
</svg>
