<svg xmlns="http://www.w3.org/2000/svg" viewBox="0 0 48 48">
  <path fill="#FFF" d="M11.6167419,11.0128632 C12.8609043,12.0235993 13.3276291,11.9464727 15.6638113,11.7906206 L37.6886431,10.4681164 C38.1558156,10.4681164 37.7673046,10.0020951 37.6115805,9.92464869 L33.9537255,7.2803118 C33.2528389,6.73620136 32.3190695,6.11304572 30.5293929,6.26891377 L9.20272962,7.82441904 C8.42497219,7.90154567 8.26959977,8.29040839 8.57938532,8.60214449 L11.6167419,11.0128632 Z M12.9390862,16.1456849 L12.9390862,39.319646 C12.9390862,40.5651195 13.5614712,41.0310129 14.9622851,40.9539502 L39.167543,39.5533921 C40.5690604,39.4763294 40.7251043,38.6196867 40.7251043,37.6079593 L40.7251043,14.5895305 C40.7251043,13.5794339 40.3365934,13.0346872 39.4786716,13.1124533 L14.1838882,14.5895305 C13.2504386,14.6679682 12.9390862,15.1349168 12.9390862,16.1456849 Z M36.8344626,17.3887922 C36.9896431,18.089423 36.8344626,18.7893823 36.1326167,18.8681077 L34.9662843,19.1004789 L34.9662843,36.2089999 C33.9537255,36.7532351 33.0199562,37.0643636 32.241879,37.0643636 C30.9961177,37.0643636 30.6841258,36.6752131 29.7509959,35.5093604 L22.1223348,23.5333093 L22.1223348,35.1204977 L24.5363151,35.6652444 C24.5363151,35.6652444 24.5363151,37.0643636 22.5887399,37.0643636 L17.2196459,37.375812 C17.0636659,37.0643636 17.2196459,36.2873417 17.7642328,36.1316175 L19.1653345,35.7433304 L19.1653345,20.4229831 L17.2199657,20.267099 C17.0639857,19.5665002 17.4525287,18.5563716 18.5429495,18.4779659 L24.3027928,18.0897108 L32.241879,30.2216459 L32.241879,19.4893416 L30.2177207,19.2570024 C30.0623483,18.4005196 30.6841258,17.7786142 31.4625227,17.7014876 L36.8344626,17.3887922 Z M7.41209366,5.72480972 L29.5953037,4.09122046 C32.3193893,3.8575773 33.0202759,4.01408322 34.7324422,5.2578419 L41.8135746,10.234786 C42.9819855,11.0906293 43.3714557,11.32364 43.3714557,12.25661 L43.3714557,39.5533921 C43.3714557,41.2641195 42.7482393,42.2758469 40.5693802,42.4306117 L14.8081918,43.9862545 C13.1726085,44.0642765 12.3941795,43.8311699 11.5376327,42.7417403 L6.32296785,35.9760213 C5.38856215,34.7306757 5,33.7989528 5,32.7088517 L5,8.44565291 C5,7.04666161 5.62336029,5.87972169 7.41209366,5.72480972 Z"/>
</svg>
