<svg xmlns="http://www.w3.org/2000/svg" viewBox="0 0 48 48">
  <path fill="#61DAFB" d="M25.013913,9.6049778 C28.4608696,6.6049778 31.8730435,5.34932563 33.96,6.55280389 C36.1373913,7.80845606 36.773913,11.62063 35.8,16.3510648 C35.7385507,16.6455575 35.6718841,16.9388908 35.6,17.2310648 C36.0324638,17.3562821 36.4614493,17.4919343 36.8869565,17.6380213 C41.2086957,19.1249778 44,21.4536735 44,23.8641082 C44,26.3754126 41.0173913,28.8328039 36.4313043,30.3528039 C36.1878261,30.4328039 35.9397101,30.5099053 35.6869565,30.5841082 C35.7773913,30.9481662 35.8573913,31.3041082 35.9269565,31.6519343 C36.8330435,36.2241082 36.1356522,39.9823691 33.9878261,41.2258474 C31.9113043,42.4258474 28.5547826,41.2467169 25.1530435,38.3214995 C24.7843478,38.002659 24.4249275,37.6733836 24.0747826,37.3336735 C23.7965217,37.6049778 23.5182609,37.8612097 23.24,38.1023691 C19.7286957,41.1701952 16.1252174,42.4432387 13.9791304,41.2049778 C11.8991304,40.0049778 11.2452174,36.5058474 12.0834783,32.10063 C12.173913,31.6217894 12.2782609,31.1464271 12.3965217,30.674543 C12.0324638,30.5701952 11.6718841,30.456572 11.3147826,30.3336735 C6.90434783,28.8293256 4,26.3423691 4,23.8641082 C4,21.4641082 6.70434783,19.1510648 10.9391304,17.6728039 C11.4121739,17.5075865 11.9078261,17.3528039 12.4173913,17.2067169 C12.3095652,16.7672966 12.2110145,16.3255575 12.1217391,15.8814995 C11.2486957,11.3980213 11.866087,7.81367345 13.9478261,6.60671693 C16.1217391,5.35106476 19.7443478,6.70062997 23.3582609,9.90584737 C23.582029,10.1052677 23.8023188,10.3093256 24.0191304,10.5180213 C24.3426087,10.2049778 24.6742029,9.90062997 25.013913,9.6049778 Z M34.0347826,31.02063 C32.2502631,31.4227808 30.4401935,31.7017001 28.6173913,31.8554126 C27.5968526,33.3484273 26.4766212,34.7707959 25.2643478,36.1128039 C25.6017391,36.4374416 25.9368116,36.7423691 26.2695652,37.0275865 C29.1773913,39.5284561 31.8730435,40.4780213 33.133913,39.7475865 C33.810422,39.2043037 34.2601573,38.4336036 34.4040214,37.5854876 L34.4434783,37.2641082 C34.7023453,35.5095911 34.637497,33.7203688 34.2504348,31.9875865 C34.1878261,31.6722242 34.115942,31.3499053 34.0347826,31.02063 Z M14.053913,31.0954126 C13.9449275,31.5348329 13.8475362,31.9777314 13.7617391,32.4241082 C13.0469565,36.1910648 13.5721739,38.9980213 14.8330435,39.7284561 C15.6412819,40.0421015 16.5328483,40.0461139 17.3386827,39.7469958 L17.6365217,39.62063 C19.0818968,39.0512175 20.4248064,38.2533604 21.6144614,37.2588138 L22.1147826,36.82063 C22.3762319,36.5916445 22.6301449,36.3580213 22.8782609,36.1180213 C21.6422121,34.7802418 20.4953943,33.362696 19.4452174,31.874543 C17.6325603,31.7370885 15.8313207,31.4767803 14.053913,31.0954126 Z M26.413913,31.9997604 C25.6197101,32.034543 24.8150725,32.0519343 24,32.0519343 C23.2046377,32.0519343 22.4243478,32.0368619 21.6591304,32.0067169 C22.4486957,33.0467169 23.2556522,34.0136735 24.066087,34.8867169 C24.8974875,33.9651275 25.6811234,33.0015455 26.413913,31.9997604 Z M24,17.4536735 C22.7669565,17.4536735 21.5478261,17.5023691 20.3582609,17.5928039 C19.6718841,18.5957024 19.026087,19.6246879 18.4208696,20.6797604 C18.0142995,21.3823691 17.6262802,22.0942532 17.2568116,22.8154126 L16.7165217,23.9041082 L17.258744,24.9902918 C17.6292432,25.7111936 18.0177778,26.4233353 18.4243478,27.1267169 C19.0365217,28.1852677 19.6881159,29.2188908 20.3791304,30.2275865 C21.5443478,30.3041082 22.7547826,30.3423691 24,30.3423691 C25.2504348,30.3423691 26.4765217,30.30063 27.6626087,30.2136735 C28.3362319,29.202659 28.9762319,28.1707749 29.5826087,27.1180213 C30.1947826,26.0583111 30.7675362,24.9788908 31.3008696,23.8797604 C30.7605797,22.7910648 30.1855072,21.7214995 29.5756522,20.6710648 C28.9692754,19.6217894 28.3269565,18.5957024 27.6486957,17.5928039 C26.4591304,17.5023691 25.2382609,17.4536735 24,17.4536735 Z M15.8086957,25.9110648 C15.3026087,27.1162821 14.8678261,28.3041082 14.5130435,29.4467169 C15.7310987,29.7067915 16.9617042,29.9041528 18.2,30.0380213 C17.7652174,29.3620792 17.3466667,28.6762821 16.9443478,27.98063 L16.3647826,26.9536735 L16.3647826,26.9536735 L15.8086957,25.9110648 Z M32.2226087,25.8519343 L31.6547826,26.9188908 L31.6547826,26.9188908 L31.0643478,27.9736735 C30.666087,28.6583111 30.2568116,29.336572 29.8347826,30.0067169 C31.0884606,29.8601874 32.3336336,29.6483048 33.5652174,29.3719343 C33.1789267,28.176147 32.7307868,27.0012309 32.2226087,25.8519343 Z M12.8782609,18.8536735 C12.4156522,18.9835285 11.9565217,19.1284561 11.5008696,19.2884561 C7.88,20.5493256 5.70956522,22.4067169 5.70956522,23.8623691 C5.83985682,24.7201243 6.28062984,25.4959125 6.94187446,26.0460542 L7.2,26.2414995 C8.59055977,27.3476245 10.1728721,28.1883016 11.8678261,28.7214995 L12.3582609,28.8810648 L12.3582609,28.8810648 L12.8521739,29.0293256 C13.3977831,27.2782015 14.0566084,25.56665 14.826087,23.9041082 C14.0662217,22.2653949 13.4155273,20.5782375 12.8782609,18.8536735 Z M35.1426087,18.8814995 C34.6053715,20.5868446 33.954643,22.2543362 33.1947826,23.8728039 C33.9837764,25.5135919 34.6601235,27.2062028 35.2191304,28.9388908 L35.5597826,28.8371517 L35.5597826,28.8371517 L35.893913,28.7301952 C39.8521739,27.4188908 42.2921739,25.4119343 42.2921739,23.8641082 C42.2921739,22.4136735 40.0347826,20.5284561 36.3304348,19.2554126 C35.9478261,19.1249778 35.5495652,18.9980213 35.1426087,18.8814995 Z M24,20.2919343 C25.4451259,20.2919343 26.7478896,21.1626441 27.3005898,22.497901 C27.8532901,23.833158 27.547032,25.3698862 26.5246761,26.3912467 C25.5023201,27.4126071 23.9652943,27.717368 22.6305764,27.1633673 C21.2958585,26.6093665 20.426419,25.3057551 20.4278227,23.86063 C20.4305737,21.9793933 21.8871594,20.4395491 23.7336744,20.3034519 L24,20.2919343 Z M29.84,17.8154126 C30.2597101,18.4739633 30.6655072,19.14063 31.0573913,19.8154126 L31.6417391,20.8501952 L31.6417391,20.8501952 L32.2052174,21.8947826 L32.5581365,21.0486072 C32.7862481,20.4800352 32.9999902,19.9058028 33.1991589,19.3264576 L33.4869565,18.4536735 C32.3373913,18.1910648 31.1147826,17.9771517 29.84,17.8154126 Z M18.1634783,17.8101952 C16.8956522,17.9684561 15.6782609,18.1771517 14.5391304,18.4328039 C14.8,19.2741082 15.103913,20.1369343 15.4494022,21.0132115 L15.8086957,21.8913043 L16.1721739,21.1987942 L16.5489855,20.5100986 L16.5489855,20.5100986 L16.9373913,19.8275865 C17.3304348,19.1435285 17.7391304,18.4710648 18.1634783,17.8101952 Z M33.1130435,8.03628215 C31.9026087,7.34174302 29.3105753,8.24678093 26.4924855,10.5944514 L26.1391304,10.8954126 C25.8226087,11.1690358 25.5165217,11.4496155 25.2173913,11.7371517 C26.4385517,13.0664494 27.5686532,14.4766069 28.6,15.9580213 C30.3998912,16.1213613 32.1869899,16.4037182 33.9495652,16.8032387 C34.0144928,16.5400503 34.0742029,16.2751227 34.1286957,16.0084561 C34.9704348,11.9232387 34.4521739,8.80845606 33.1130435,8.03628215 Z M22.2226087,11.1858474 C19.2226087,8.52196777 16.3737535,7.39847922 14.9685666,8.00400355 L14.8069565,8.0849778 C13.5495652,8.81541258 13.0504348,11.7128039 13.8034783,15.5562821 C13.8846377,15.9678764 13.9762319,16.3794706 14.0782609,16.7875865 C15.8370491,16.3962275 17.6193259,16.1191264 19.413913,15.9580213 C20.4556478,14.4778535 21.5943772,13.0683853 22.8226087,11.7388908 C22.6226087,11.5475865 22.4226087,11.3632387 22.2226087,11.1858474 Z M24.0173913,12.9643478 L23.4200272,13.62688 C22.8220652,14.3069343 22.2282609,15.0354126 21.6452174,15.8049778 C23.222029,15.7296155 24.7976812,15.7296155 26.3721739,15.8049778 C25.8197501,15.0652514 25.2395588,14.3468136 24.6328681,13.6511947 L24.0173913,12.9643478 Z"/>
</svg>
