<svg xmlns="http://www.w3.org/2000/svg" viewBox="0 0 48 48">
  <g fill="none" transform="translate(4 6)">
    <polygon fill="#FDB300" points="8.71 1.189 19.96 0 31.21 1.189 39.919 12.881 19.96 36.124 0 12.881"/>
    <g transform="translate(0 12.881)">
      <polygon fill="#EA6C00" points="8.085 0 19.96 23.243 0 0"/>
      <polygon fill="#EA6C00" points="28.044 0 39.919 23.243 19.96 0" transform="matrix(-1 0 0 1 59.879 0)"/>
      <polygon fill="#FDAD00" points="8.085 0 31.835 0 19.96 23.243"/>
    </g>
    <polygon fill="#FDD231" points="19.96 0 8.71 1.189 8.085 12.881"/>
    <polygon fill="#FDD231" points="31.835 0 20.585 1.189 19.96 12.881" transform="matrix(-1 0 0 1 51.794 0)"/>
    <polygon fill="#FDAD00" points="31.21 12.881 39.919 1.189 39.294 12.881" transform="matrix(-1 0 0 1 71.129 0)"/>
    <polygon fill="#FDAD00" points="0 12.881 8.71 1.189 8.085 12.881"/>
    <polygon fill="#FEEEB7" points="19.96 0 8.085 12.881 31.835 12.881"/>
  </g>
</svg>
