<svg xmlns="http://www.w3.org/2000/svg" viewBox="0 0 48 48">
  <path fill="#06B6D4" fill-rule="evenodd" d="M20,0 C14.6666667,0 11.3333333,2.66666667 10,8 C12,5.33333333 14.3333333,4.33333333 17,5 C18.5214815,5.38 19.6088889,6.48444444 20.8125926,7.70592593 C22.7733333,9.6962963 25.042963,12 30,12 C35.3333333,12 38.6666667,9.33333333 40,4 C38,6.66666667 35.6666667,7.66666667 33,7 C31.4785185,6.62 30.3911111,5.51555556 29.1874074,4.29407407 C27.2266667,2.3037037 24.957037,0 20,0 Z M10,12 C4.66666667,12 1.33333333,14.6666667 0,20 C2,17.3333333 4.33333333,16.3333333 7,17 C8.52148148,17.3807407 9.60888889,18.4844444 10.8125926,19.7059259 C12.7733333,21.6962963 15.042963,24 20,24 C25.3333333,24 28.6666667,21.3333333 30,16 C28,18.6666667 25.6666667,19.6666667 23,19 C21.4785185,18.62 20.3911111,17.5155556 19.1874074,16.2940741 C17.2266667,14.3037037 14.957037,12 10,12 Z" transform="translate(4 12)"/>
</svg>
